<svg xmlns="http://www.w3.org/2000/svg" viewBox="0 0 41.06 36.73"><defs><style>.cls-1{fill:#282827;}</style></defs><g id="Calque_2" data-name="Calque 2"><g id="Calque_1-2" data-name="Calque 1"><path class="cls-1" d="M40,23.18a.61.61,0,0,1-.07.47c-.32.45-1.38.37-1.93.21-1-.3-2.26-2.84-2.69-3.14-1.94-1.33-2.82-.85-3.26-.69s-.41.7-.34,1.63A121.31,121.31,0,0,0,34.1,36.35l-4.48.31c-.11-2.25-2-11-2.87-14.81-.19-.84-.33-1.42-.37-1.59-.59-2.39-7.3-7.59-9.34-9.11a.93.93,0,0,0-.56-.12c-1.76,0-6.41,1.78-7.64,1.26A82.18,82.18,0,0,1,0,7.7L1.68,5.83C1.81,6,8.49,9,9.23,9,10.39,9,14.71,5.7,15,5.28L12.55,7.17c-2.75-1.09-6.13-2.89-8.87-4l.89-1.27a53.5,53.5,0,0,0,8.12,3.14c.39.05.76-.35,1.16-.67,0,0,.61-.56,1-.95.19-.21.32-.36.27-.37-.66-.11-.53-.64-.53-.64C15.72.6,20.73.18,22.1.59c2.28.68,5.51,9.37,8.84,12.15,1.36,1.13,1.66,1,2.38.87,1.37-.22,2.48-.82,3.46-.77a4.54,4.54,0,0,1,3.54,2.27,5,5,0,0,1,.42,2.39C40.83,20.21,39.8,21.74,40,23.18Z"/><path class="cls-1" d="M18.24,2.05a1.33,1.33,0,0,0-1,.29,9.75,9.75,0,0,1-.93.69,1.74,1.74,0,0,1-1.21.14.92.92,0,0,1-.55-.41.57.57,0,0,1-.08-.37A.68.68,0,0,1,14.61,2a5.81,5.81,0,0,1,2-1.19A12.54,12.54,0,0,1,18.89.18,8.05,8.05,0,0,1,21.25,0a3.43,3.43,0,0,1,2.2,1.08A19.36,19.36,0,0,1,26,5,37.28,37.28,0,0,0,31,12.56c.5.53,1.08,1.15,1.82,1a14.12,14.12,0,0,0,2.2-.54,4.41,4.41,0,0,1,2.31-.28,4.69,4.69,0,0,1,2.13,1,3.91,3.91,0,0,1,1.36,2A11,11,0,0,1,41.06,18a11.39,11.39,0,0,1-.26,2.33,17.38,17.38,0,0,0-.41,2.19,2.75,2.75,0,0,0,0,.5,1,1,0,0,1-.15.83,1.69,1.69,0,0,1-1.35.44,2.53,2.53,0,0,1-1.29-.3,3.67,3.67,0,0,1-.92-.87c-.51-.61-.92-1.28-1.34-1.88l-.15-.2c-.05-.06,0,0-.14-.12a4.34,4.34,0,0,0-.46-.28,4.06,4.06,0,0,0-1-.42,1.88,1.88,0,0,0-.94,0,2,2,0,0,0-.41.13.64.64,0,0,0-.11.26,8.21,8.21,0,0,0,0,2.16c.13,1.5.37,3,.62,4.51.48,3,1,6,1.32,9.07h-.07c-.56-3-1.25-6-1.84-9-.29-1.51-.58-3-.77-4.55a8.38,8.38,0,0,1,0-2.4,1.12,1.12,0,0,1,.42-.72,2.07,2.07,0,0,1,.67-.25,2.63,2.63,0,0,1,1.31,0A4.72,4.72,0,0,1,35,20l.51.32a1.08,1.08,0,0,1,.29.25c.08.09.14.17.2.25.47.65.84,1.3,1.3,1.87a3.18,3.18,0,0,0,.71.71,2,2,0,0,0,.92.21,1.17,1.17,0,0,0,.78-.17s0-.05,0-.27a3.35,3.35,0,0,1,0-.63,14.15,14.15,0,0,1,.48-2.3,10.36,10.36,0,0,0,.33-2.2,10.84,10.84,0,0,0-.11-2.22A3.58,3.58,0,0,0,39.25,14a4.45,4.45,0,0,0-1.94-1,4,4,0,0,0-2.18.24,16,16,0,0,1-2.25.53,1.56,1.56,0,0,1-1.17-.27,5.4,5.4,0,0,1-.88-.77A37.54,37.54,0,0,1,25.4,5.34,25.24,25.24,0,0,0,23,1.55C22.06.42,20.43.49,19,.73a11.8,11.8,0,0,0-2.18.55,5.8,5.8,0,0,0-1.93,1c-.23.17,0,.5.28.61a1.5,1.5,0,0,0,1-.06c.32-.15.61-.42.94-.62A1.43,1.43,0,0,1,18.25,2Z"/><path class="cls-1" d="M29.62,36.66a53.8,53.8,0,0,0-1.09-5.93q-.64-2.94-1.34-5.88l-.7-2.93-.35-1.47a3.63,3.63,0,0,0-.61-1.23A27.71,27.71,0,0,0,21.35,15c-.76-.65-1.53-1.3-2.31-1.93l-1.17-.93-.6-.46a2.57,2.57,0,0,0-.49-.34,4.83,4.83,0,0,0-1.37.12c-.48.09-1,.21-1.45.32-1,.24-2,.49-3,.67a8,8,0,0,1-1.56.15,2,2,0,0,1-.82-.2l-.69-.33c-.91-.43-1.81-.88-2.7-1.34s-1.78-1-2.66-1.44A21.22,21.22,0,0,1,0,7.7a54.3,54.3,0,0,0,5.39,2.71l2.74,1.24.69.3a1.32,1.32,0,0,0,.64.13,6.54,6.54,0,0,0,1.43-.19c1-.21,1.93-.48,2.91-.73.49-.12,1-.25,1.49-.34a4.45,4.45,0,0,1,1.62-.13,2.15,2.15,0,0,1,.78.45l.61.45,1.19.93c.79.63,1.58,1.27,2.35,1.92a28.52,28.52,0,0,1,4.25,4.39,4.44,4.44,0,0,1,.7,1.47l.33,1.47c.23,1,.43,2,.63,3A87.32,87.32,0,0,1,29.62,36.66Z"/><path class="cls-1" d="M31.9,36.73a62.27,62.27,0,0,1-1.75-8c-.19-1.34-.38-2.68-.51-4a13.85,13.85,0,0,1-.11-2.06c.06-.7.15-1.37.27-2.05.1.68.11,1.37.22,2s.27,1.31.4,2c.28,1.34.51,2.69.73,4.05A60.54,60.54,0,0,1,31.9,36.73Z"/><path class="cls-1" d="M1.68,5.82,5.25,7.16c1.19.43,2.36.92,3.54,1.32l.4.12a.54.54,0,0,0,.3,0,4.91,4.91,0,0,0,.8-.34c.55-.27,1.08-.61,1.63-.93s1.07-.67,1.59-1a15.05,15.05,0,0,0,1.56-1.09,16.19,16.19,0,0,1-2.83,2.59,15,15,0,0,1-1.61,1.07,4.27,4.27,0,0,1-.94.43,1.3,1.3,0,0,1-.63.05c-.2,0-.34-.09-.51-.14A30.71,30.71,0,0,1,5,7.68,25.37,25.37,0,0,1,1.68,5.82Z"/><path class="cls-1" d="M12.5,7.37c-3-1.29-5.83-2.89-8.82-4.18,3.05,1.13,6,2.59,9,3.72Z"/><path class="cls-1" d="M4.59,1.9a19.25,19.25,0,0,0,2.33,1c.79.29,1.58.57,2.38.84s1.61.5,2.39.79a8.31,8.31,0,0,0,1.14.37c.31,0,.68-.31,1.05-.51l0,0c-.3.3-.51.7-1.06.82A6.24,6.24,0,0,1,11.54,5a21.91,21.91,0,0,1-2.38-.89l-2.34-1A18.6,18.6,0,0,1,4.55,1.93Z"/></g></g></svg>