<svg xmlns="http://www.w3.org/2000/svg" viewBox="0 0 76.5 27.16"><defs><style>.cls-1{fill:#282827;}</style></defs><g id="Calque_2" data-name="Calque 2"><g id="Calque_1-2" data-name="Calque 1"><path class="cls-1" d="M61.65,3.46H14.59L10.78,13.93h3.31v7.43h1V13.93H29.44l.17-6.32L25,7.48,24.8,13,24.62,7.3V7.13h.18L29.94,7h.31V7.3l.18,6.63H51.53l.17-6.32-4.82-.13L46.71,13,46.53,7.3V7.13h.18L52,7h.31V7.3l.18,6.63h9.8l.5,6.88.5-6.88h3.44Zm-29.56,4a26.85,26.85,0,0,1-2.44-1.43c-.75-.49-1.46-1-2.18-1.56-1.53,1-3.06,2-4.61,3l0,0q2.25-1.71,4.53-3.37L27.47,4l.12.08c.79.52,1.59,1,2.34,1.57a26.83,26.83,0,0,1,2.19,1.8Zm21.9,0a27,27,0,0,1-2.45-1.43c-.75-.48-1.46-1-2.17-1.56l-4.61,3,0,0Q47,5.74,49.26,4.08L49.37,4l.12.08c.78.52,1.59,1,2.34,1.57S53.32,6.79,54,7.45Z"/><path class="cls-1" d="M76.5,24.84l0,.09a73.89,73.89,0,0,0-19-4.33,181.86,181.86,0,0,0-19.53-1.06A129.9,129.9,0,0,0,18.4,20.78C12,21.75,5.55,23.55.06,27.16L0,27.08c5.42-3.74,11.86-5.72,18.31-6.82.57-.1,1.15-.19,1.72-.27l.95-.14c2.84-.4,5.7-.66,8.56-.84l.91-.06q3.72-.21,7.46-.28l1.74,0h.9c2.68,0,5.37.05,8.05.2l.89,0c2.7.17,5.39.42,8.08.78l1.72.25,1,.15c2.35.38,4.69.83,7,1.44A46.66,46.66,0,0,1,76.5,24.84Z"/><path class="cls-1" d="M48.75,17a1.24,1.24,0,0,0,0-.73,1.36,1.36,0,0,0-1.27-.66,1.65,1.65,0,0,0-.78.18,1.68,1.68,0,0,0-.57.61,1.67,1.67,0,0,1,.51-.7,1.76,1.76,0,0,1,.83-.32,1.71,1.71,0,0,1,1.69.68,1.83,1.83,0,0,1,.22.94l.07.85.09,1-.89,0,.08-1Z"/><path class="cls-1" d="M59.46,17.38a6.81,6.81,0,0,0,0-.87,1.18,1.18,0,0,0-1.2-.9,1.75,1.75,0,0,0-.87.15,1.56,1.56,0,0,0-.61.66,1.59,1.59,0,0,1,.55-.76,1.8,1.8,0,0,1,.93-.3,2,2,0,0,1,1,.19,1.38,1.38,0,0,1,.68.83,5.53,5.53,0,0,1,.11,1l.06.94.12,1.74-1-.15.1-1.59Z"/><path class="cls-1" d="M39.82,16.8a.87.87,0,0,0-.11-.64,1.45,1.45,0,0,0-1.27-.56,1.43,1.43,0,0,0-1.3.76,1.69,1.69,0,0,1,.49-.67,1.75,1.75,0,0,1,.79-.31,1.79,1.79,0,0,1,1.66.52,1.48,1.48,0,0,1,.3.9l.08.82.09,1h-.9l.1-1Z"/><path class="cls-1" d="M29.71,17a1.18,1.18,0,0,0-.06-.71,1.38,1.38,0,0,0-1.27-.64,1.44,1.44,0,0,0-1.34.78,1.62,1.62,0,0,1,.5-.69,1.75,1.75,0,0,1,.83-.31,1.7,1.7,0,0,1,1.68.64,1.73,1.73,0,0,1,.24.93l.07.85L30.45,19l-.91.06.1-1.21Z"/><path class="cls-1" d="M20.19,17.45a7.33,7.33,0,0,0,0-.89,1.21,1.21,0,0,0-1.2-.95,1.66,1.66,0,0,0-.87.17,1.64,1.64,0,0,0-.61.69,1.78,1.78,0,0,1,.54-.79,1.74,1.74,0,0,1,.94-.32,1.82,1.82,0,0,1,1,.22,1.42,1.42,0,0,1,.67.86,5.45,5.45,0,0,1,.11,1l.06.95.1,1.45L20,20l.1-1.59Z"/><polygon class="cls-1" points="55.56 3.46 55.81 0.13 55.93 0.26 53.86 0.13 55.93 0.01 56.05 0 56.06 0.13 56.31 3.46 55.56 3.46"/></g></g></svg>