<svg xmlns="http://www.w3.org/2000/svg" viewBox="0 0 598.06 78.58"><defs><style>.cls-1{fill:#282827;}</style></defs><g id="Calque_2" data-name="Calque 2"><g id="Calque_1-2" data-name="Calque 1"><path class="cls-1" d="M0,78.58c.92-.76,1.9-1.51,2.94-2.26C42,48.09,160.47,27.57,300.5,27.57S559,50.35,598.06,78.58"/><path class="cls-1" d="M45.9,53v8.29H44.62c0-.09.3-8.29.3-8.29a22.23,22.23,0,0,1-4-2.73l0,11H39.3c0-.08.33-8.16.52-12.79v-.05c.07-1.84.12-3.13.12-3.13s-7.09-4.57-7-6.72c.13-2.49,8.64-31.65,8.64-31.65S43.37,14.88,45,23c.86-4,1.48-6.85,1.48-6.85s4.25,30.2,4.25,32.58C50.73,50.2,45.9,53,45.9,53Z"/><path class="cls-1" d="M379.28,19.53c-.12.41-.75.73-1.55,1a2,2,0,0,0,0,.42s0,0,0,0a.41.41,0,0,1,.18.23l.07.18a.36.36,0,0,0,0,.09,1.34,1.34,0,0,1,.18.28.59.59,0,0,1,0,.37.53.53,0,0,1-.48.42,1,1,0,0,1-.3,0,.33.33,0,0,1-.16-.05,2.08,2.08,0,0,1-.21-.21.51.51,0,0,1-.09-.31.55.55,0,0,1,.11-.3l.09-.12a.7.7,0,0,0,.13-.24.85.85,0,0,1,.06-.17.42.42,0,0,1,.18-.17c.06,0,.06,0,.05-.08s0-.22,0-.33a25.9,25.9,0,0,1-4.39.75l.17,9.43h-1l.2-9.4s-6.21-.53-6.12-2.28c.1-2,6.36-15.49,6.36-15.49S379.9,17.43,379.28,19.53Z"/><path class="cls-1" d="M334,5H265.11l-5.57,15.31h4.84V31.19h1.47V20.31h21l.25-9.24-6.8-.19-.24,8.1-.26-8.37v-.25h.26l7.52-.21H288v.46l.27,9.7h30.85l.25-9.24-7.05-.19-.25,8.1-.26-8.37v-.25h.26l7.79-.21.45,0v.48l.27,9.7H335l.73,10.07.73-10.07h5Zm-43.25,5.89a39.65,39.65,0,0,1-3.57-2.09c-1.1-.72-2.14-1.51-3.19-2.28-2.24,1.46-4.48,2.92-6.74,4.37l-.05-.06q3.3-2.49,6.63-4.93l.16-.11.18.11c1.15.76,2.32,1.48,3.42,2.3a40.27,40.27,0,0,1,3.2,2.63Zm32,0a39.82,39.82,0,0,1-3.58-2.09c-1.1-.7-2.14-1.51-3.18-2.28-2.23,1.46-4.49,2.92-6.74,4.37l0-.06q3.28-2.49,6.62-4.93l.16-.11.18.11c1.14.76,2.33,1.48,3.42,2.3s2.18,1.67,3.19,2.63Z"/><path class="cls-1" d="M315.1,24.79a1.86,1.86,0,0,0-.08-1.07,2,2,0,0,0-1.85-1,2,2,0,0,0-2,1.15,2.49,2.49,0,0,1,.75-1,2.61,2.61,0,0,1,1.21-.47,2.49,2.49,0,0,1,2.47,1,2.69,2.69,0,0,1,.33,1.37l.1,1.25.13,1.52-1.3-.06L315,26Z"/><path class="cls-1" d="M330.77,25.36a9.58,9.58,0,0,0,0-1.27,1.72,1.72,0,0,0-1.75-1.32,2.58,2.58,0,0,0-1.28.22,2.33,2.33,0,0,0-.89,1,2.24,2.24,0,0,1,.81-1.11,2.59,2.59,0,0,1,1.36-.44,2.9,2.9,0,0,1,1.46.27,2,2,0,0,1,1,1.22,7.38,7.38,0,0,1,.16,1.46l.09,1.38.18,2.54-1.42-.22.15-2.32Z"/><path class="cls-1" d="M302,24.51a1.22,1.22,0,0,0-.16-.93,2.12,2.12,0,0,0-1.86-.82,2.08,2.08,0,0,0-1.9,1.11,2.55,2.55,0,0,1,.72-1,2.4,2.4,0,0,1,1.15-.45,2.61,2.61,0,0,1,2.43.76,2.13,2.13,0,0,1,.44,1.31l.12,1.2.13,1.5h-1.32l.15-1.51Z"/><path class="cls-1" d="M287.24,24.73a1.77,1.77,0,0,0-.09-1,2,2,0,0,0-1.86-.93,2.11,2.11,0,0,0-2,1.14,2.44,2.44,0,0,1,.73-1,2.51,2.51,0,0,1,1.22-.45,2.47,2.47,0,0,1,2.46.93,2.61,2.61,0,0,1,.35,1.36l.1,1.25.13,1.68-1.33.09.15-1.77Z"/><path class="cls-1" d="M273.31,25.46a12.78,12.78,0,0,0,.06-1.3,1.78,1.78,0,0,0-1.76-1.39,2.46,2.46,0,0,0-1.27.25,2.43,2.43,0,0,0-.89,1,2.54,2.54,0,0,1,.79-1.15,2.46,2.46,0,0,1,1.37-.47,2.69,2.69,0,0,1,1.48.32,2.08,2.08,0,0,1,1,1.26,8.12,8.12,0,0,1,.16,1.47l.09,1.39.14,2.13-1.39.2.15-2.33Z"/><polygon class="cls-1" points="325.23 5 325.48 0.13 325.61 0.26 322.57 0.13 325.61 0.01 325.73 0 325.73 0.13 325.98 5 325.23 5"/></g></g></svg>