<svg xmlns="http://www.w3.org/2000/svg" viewBox="0 0 438.52 442.4"><defs><style>.cls-1{fill:#282827;}.cls-2{fill:#eadd55;opacity:0.82;}</style></defs><g id="Calque_2" data-name="Calque 2"><g id="Calque_1-2" data-name="Calque 1"><path class="cls-1" d="M116.74,287.27c.36-1.94.8-3.87,1.08-5.82.73-5.19.7-5.19,5-2.1,4.52,4.95,7.52,10.87,10.73,16.71-1.27-7-1.87-14.33-8.64-18.77-2.3-2.53-5.44-3.91-8.12-5.9l-1.67-2.11c-.14-4.8-.41-9.55-4-13.3,0-.77-.26-1.42-1.12-1.62l-.07-1.07c5.23-.09,6.08,6,10.2,7.57,2.21-10.53,1.19-12.71-6.17-13.51-3.26-1.29-6.52-2.57-8.73-5.52.79-3.64,2.6.43,3.75-.5,7.94,4.43,8.26,4.38,11.55-1.74l-9-2.53-4.57-2.41-6.78-5.3-2.89-3-6.94-9.69a6.92,6.92,0,0,0-2.16-3.53l-4.32-7.62a5.46,5.46,0,0,0-1.9-3c0-.32,0-.63.1-.95,3.49,0,5.3,3.62,8.59,4.1,1.08-5.84.12-7.51-5.64-9.9-2.51-2.64.58-4.05,1.31-6,4.35-1.81,8.36.51,12.51,1.17-3.84-4.5-8.48-3.06-13.08-2l-8.71.59-1.85-2.28c.3-2.41.17-5,1-7.19,1.88-5.07-.81-4.91-4.28-4.2a18,18,0,0,0-1.85.58l-5,.18c-1-3.49,3.83-3.84,3.62-7.27l-13.6,2.14-2.72-.06c2.83-8.27-5-5.89-8.16-8.17-.63-.87-1.59-.85-2.51-.95l-10.42-4.81a8.47,8.47,0,0,0-4.14-2.72c-2.63-.82-5.43-.76-7.48.89-3.32,2.66-4.67.61-6.16-1.85l-1-1.32c-2.38-4.4-6.66-6.69-11.46-9.61,5.1-.79,9.3-1.4,13.47-2.13,1-.17,2.82.56,2.68-1.2-.18-2.45-.6-5.16-2.5-6.83-1.32-1.16-1.51,1.16-2.33,1.75-1.42,1-2.83,2-4.44.61a2,2,0,0,1,0-3.08c1.49-1,3.07-3.41,5-1.84,1.46,1.17,2.42,2,4.2.91-1.34-4.06-3.91-5.24-7.87-3.56a9.38,9.38,0,0,1-3.38.75c-1.85,0-4.26,2-5.35.29-1.24-1.93.08-4.49,1.2-6.57,1.66-3.08,4.69-4.58,7.46-6.38l7-2c5.31-.48,10.56-1.67,15.94-1.22l5,.15c3.32.55,6.35.73,7-3.82.26-1.79,1.88-2,3.47-2.07,3.48-.06,7-.17,10.44-.26l2.49.4c3.27,2.14,4.14,6.06,6.57,8.81a5.1,5.1,0,0,0,1.84,3.06c1.15,4.52,3.11,6.32,7.55,2.89,2.35-1.82,5.58-1.73,8.48-2.24l6-.7a7.6,7.6,0,0,0,4.71-.67c3-1.67,5.21-1,7,1.83,3.65,2,7.31.8,11.32.5-1.18-2.54-2.14-4.58-3.09-6.63q-.15-7.47-.29-14.94a5.15,5.15,0,0,0-.63-4c.29-4.3-2.21-7.52-4.2-11l-1.56-3.07-3-12c-.09-1.63-.19-3.27-.29-4.91h0l2,.38c4.71,2.52,9.24,6,15,2.52h5c3,.46,1.27,2.29,1.06,3.67-.39,2.48-2.27,4.93-.13,7.45.76,3,1.52,6,2.52,9.93.69-2.46,1.08-3.88,1.48-5.3l12,2.17,4,1c4.28.89,8.48,2.28,12.94,2,7,.63,12.43-3.16,18.49-6.07-3.37-2-7.23.82-9.48-2.81,3.17-8.11,8.58-14,17-16.78a19,19,0,0,0,6.94-2.13c8.15-1.32,15.56-3.91,20.69-11,2-2.72,4.73-4.62,8.78-4.08-1.93-4-2.46-7.88-3.12-11.75l.11-5.09c.5-5.3,1.77-10.53,1.42-15.91-.05-4.73,4.73-4.45,7-6.76,6.14-2.33,12.54-3.61,18.93-4.95l5-.23c1.8,3.13,1.79,7,4,9.94a6.69,6.69,0,0,0,2,4.09c.81,4.06,2.78,4.59,6.34,2.6,2.34-1.3,4.27-4.36,7.71-2.72.48,1.05,1,2.1,1.43,3.14.84,2.48,1.7,4.95,2.5,7.44.62,1.94,1.72,3.14,3.91,2.91l4.92.9c3.41,1.38,4.59,4.07,4.42,7.55,2.55,1.81,5.15-.16,7.72.11,3.18.89,6.47,1.5,9,3.91l1,3c-1.56,2.43-1.56,5.33-1.63,8-.12,4.2,3.59,4.3,6.63,4.8,4.53,1.15,7.57-.54,9.38-4.79,1.47-3.49,3.88-6,7.72-6.86,1,2.84-1.12,4.82-2.1,7-1.08,2.42-1.43,4.57.17,6.81.8,1.68.36,4.1,2.82,4.81l8.78,4.28,4.15,3c2.59,2.12,4.28,5.41,7.93,6.19,1.15,1.09,2.59.89,4,.9,5,1.49,10,.89,15,.76l3.86.37c3.55,1.09,7.83-.58,10.75,2.87l2.31,3.91,1,2.21c1.89,4.33,4.12,7.65,9,3l4.07,1.44c4.74,5.08,9.79,2.76,14.84.6.64.66,1.28,1.32,1.93,2a16,16,0,0,0,11.11,3.78c1.54,1,3.28.94,5,.83,2.65,1.34,6.34-.11,8.33,3a44.43,44.43,0,0,0-9.31,15,59.49,59.49,0,0,0-7.1,22c-1.16,1.86-1,3.91-.9,6-1.57,5.25-1.55,10.59-1,16l.18,5c-.07,1-.16,2-.19,3-.29,9.35-3.18,12.07-12.45,11.74-4.59-3.59-7.24-.31-10.32,3.19l5.83,1c-1,5-4.79,8.2-8.11,11.49-8.94,8.85-13.87,20.38-21,30.45a6.05,6.05,0,0,0-1,6c-.3,4.26-.56,8.53-2.24,12.56-.28.68-1.12,1.47-.19,2.15s1.85.09,2.66-.52c1.91-1.44,3.64-3.32,3.76-5.6.37-7.28,5.35-9.15,11.17-10.24,1.62-.3,3.25-.49,4.88-.73,1.17.31,2.63-.29,3.46,1.1.53,4.44.19,9,2.15,13.23.23,1.13.28,2.33,1.35,3.08.86,3.26,4.12,4.88,5.4,7.85.69,4.06-2.74,5-5.18,6.31-3.7,2-3.79,3.62-.1,5.53l6,8.11a6.62,6.62,0,0,0,2.75,3.33c2,2.91,3.82,5.89,3.25,9.67-2.49,4.9-7.23,6.41-11.94,7.91-7.31,2.33-7.34,2.33-3.29,8.94a20.34,20.34,0,0,0,1.85,2.22c2.18,4,6.44,3.85,10,5,.36,1.31.72,2.62,1.07,3.92a18.89,18.89,0,0,1-4.38,8.59c-2.85,3.07-.25,6.2-.22,9.3a6.28,6.28,0,0,0,1.5,4.08c2.32,4.56,7.18,4.66,11.14,6.33l2.19.93c3.88,2.73,7.13.4,10.49-1.27,1.65-.82,3.58-2.58,4.33.94l-.81,6c-3.78,11.84-11.24,20.51-21.71,27.21-5.86,3.75-11.67,8.38-12.55,16.36-.21,1.83-1.77,2.34-3.19,2.7-7.17,1.78-13.67,4.5-17.35,11.51l-.42-4.93c.06-1.52.17-3.43-2.17-2.16-4.23,2.3-7.92,1.53-11.43-1.37l-2.18-.8c-3.57-1.73-7.67-2.2-11-4.62-1.1-1.2-1.32-3.09-3-3.85l-10.58-1.3c1.75-2.76,5.1-3.86,7.82-7.06l-9.25.81c-3-.46-5.22-.06-6.08,3.67-.68,2.95-3.3,3.39-5.94,2.2-1.62-.73-3.14-1.7-4.7-2.56-1.49-1.47-3.32-1.17-5.13-1-3.26-1.5-8,.85-10-3.89-.55-3-2.2-1.63-3.46-.74-3.86,2.72-7.64,5.56-11.44,8.35-2.49,1.29-4.86,3-7.5,3.8-10.87,3.17-14.55,12-17.43,21.51-.31,1.77-.48,3.52.84,5q1.11,5.47,2.23,10.94a6.89,6.89,0,0,0,1.46,4.09c.27.83.55,1.65.82,2.47l-.62.62-2.77-.38c-1.15-1.17-2.57-1.1-4-.91-3-.47-4.9,1.74-7.1,3.06-3.74,2.24-7.5,3.55-11.73,1.48a6.68,6.68,0,0,0-4-1.72c-5.14-2.24-9.26,1.83-14,2.23-.67-1.85,1.18-5.32-3.12-4.84-3.35-.7-4.61-3.59-6.27-6.05-1.15-2.48-3.34-2.81-5.71-2.78l-10.91-3.44a5.09,5.09,0,0,0-3.06-1.6,44.12,44.12,0,0,0-10.94-4.08,3.93,3.93,0,0,0-3-1.1,9.43,9.43,0,0,0-5-1.81V422c-.28,1-.68,2-2,2.11l-13.9-.39a8,8,0,0,0-5.1-.11c-3.74,0-7.25-.61-9.87-3.64a5.41,5.41,0,0,0-3.06-2.93c-1.83-1.9-3.83-.49-5.42.13-3.28,1.27-6,.95-8.4-1.54a2.63,2.63,0,0,0-1.74-1.75c-2.76-3.93-7.08-4.81-11.35-5.76a3.79,3.79,0,0,0-3-1.12,27.53,27.53,0,0,0-11.88-3.41l-3-.6c.21-.61.4-1.23.64-1.83,3.28-8.25,3.28-8.25-5.63-9.79L90,390.26c-3.18-.75-1.21-1.81-.07-2.5,8.5-5.19,12.55-13.1,14-22.64a13.54,13.54,0,0,0,1.28-6,74.47,74.47,0,0,0,3.81-19,13.35,13.35,0,0,0,.85-6c1.56-4.69,1.24-10.5,7.75-12.16,1.56-.4,1.25-1.77-.07-2.46a9.63,9.63,0,0,0-5.2-1.47c-1.25-1.91.16-3.9-.21-5.83,2.13-6.15,3-12.56,3.77-19C116.12,291.28,116.43,289.28,116.74,287.27Z"/><path class="cls-2" d="M266.09,151.39a15.94,15.94,0,0,1-1.94,1.63.88.88,0,0,0-.34.72,4.85,4.85,0,0,1-.24,1.35.53.53,0,0,0,.21.62,1.42,1.42,0,0,1,.47,1.47.82.82,0,0,0,0,.51c.23.5,0,.71-.44.9a3.18,3.18,0,0,0-.72.56,1.59,1.59,0,0,1-1,.49.76.76,0,0,0-.45.2.82.82,0,0,1-.81.14c-.47-.15-.9.12-1.36.13a.28.28,0,0,0-.22.31c0,.67-.29,1.29-.31,2,0,.41.14.52.51.44.13,0,.27-.06.4-.09.59-.15.49-.12.65.45a2.41,2.41,0,0,0,1.1,1.43c.28.16.38.25.21.57a.81.81,0,0,0,.16,1.1.53.53,0,0,1,.21.39,1.33,1.33,0,0,0,.52.89c.42.37.24.92.29,1.4s-.08.62-.55.56a4.26,4.26,0,0,0-.86.09.37.37,0,0,0-.37.36c0,.47-.34.66-.72.81a2.6,2.6,0,0,0-.41.2c-.24.16-.48.31,0,.55s.29.59.49.88a1.19,1.19,0,0,1-.62,0,.64.64,0,0,0-.64.32c-.18.34-.59.45-.81.77s-.24,0-.29-.12c-.12-.3-.23-.6-.34-.9a.6.6,0,0,0-.65-.46,1.25,1.25,0,0,1-1-.21c-.2-.16-.25.08-.31.19-.22.46-.44.92-.62,1.4-.11.28-.27.38-.54.3s-.71.14-.79-.4a1.17,1.17,0,0,0-.93-1.08c-.1,0-.22-.09-.22-.19a2.1,2.1,0,0,0-.66-1.3c-.05-.07-.09-.2-.13-.2-.53,0-.88-.48-1.38-.49s-1.09,0-1.64,0a.88.88,0,0,1-.91-.5c-.19-.36-.44-.66-.93-.54-.06,0-.15,0-.17,0s0-.39-.34-.38a1.3,1.3,0,0,0-1,.31,6.94,6.94,0,0,1-.53.55.62.62,0,0,1-1.08-.2.65.65,0,0,0-.75-.44.69.69,0,0,1-.81-.66c-.07-.67-.46-.87-1.07-.52-.17.11-.33.25-.5.35-.6.34-1,.15-1.15-.51a3.83,3.83,0,0,1-.12-1c0-.43-.22-.54-.57-.49a8.76,8.76,0,0,0-.9.25,3.56,3.56,0,0,0-.06-.44c-.06-.2-.16-.4-.41-.38a2.83,2.83,0,0,0-2,.56c-.21.2-.42.24-.55-.08a.53.53,0,0,0-.84-.27,2.34,2.34,0,0,1-2.28,0,.72.72,0,0,0-.93.19c-.24.33-.38.17-.55,0a2,2,0,0,1-.2-.35c-.19-.42-.43-.56-.87-.26s-1.09.11-1.64.22c-.16,0-.21-.14-.24-.28s-.09-.26-.27-.24a.35.35,0,0,0-.29.26c0,.1,0,.2-.06.3-.13.44-.13,1-.86.89-.24,0-.4.22-.53.43a2.46,2.46,0,0,1-.22.34c-.14.17-.27.41-.51.37s-.21-.33-.24-.52a1.06,1.06,0,0,0-.76-1c-.26-.07-.35-.3-.41-.54a12.53,12.53,0,0,1-.49-2.64c0-.3-.09-.42-.41-.41-.7,0-1.4,0-2.1,0-.36,0-.62.08-.73.47a.59.59,0,0,1-.49.46c-.27.05-.52.06-.6-.29a.55.55,0,0,0-.12-.28,2.39,2.39,0,0,1-.63-2.09,1.1,1.1,0,0,0-.9-1.28c-.2,0-.36-.16-.33-.39a2,2,0,0,1,.74-1.54,1.75,1.75,0,0,0,0-3c-.81-.51-.86-1.12-.19-1.84a2.63,2.63,0,0,0,.52-1.66c0-.28-.22-.35-.47-.35a3.24,3.24,0,0,0-1.09.24l-.1-.1a2.29,2.29,0,0,0,.16-1.27c-.06-.3,0-.6.45-.47a.21.21,0,0,0,.29-.23c.06,0,.14,0,.17.08.52.63.87.56,1.17-.22.06-.16.11-.33.16-.49s.13-.33.31-.37a1.59,1.59,0,0,0,1.26-1c.07-.15.16-.29.38-.11a9.42,9.42,0,0,0,1.61.83.48.48,0,0,0,.52-.07,1.11,1.11,0,0,1,.91-.23.83.83,0,0,0,1-.5c.13-.23.24-.49.37-.72s.16-.32.34-.26.46-.11.63-.28a1.23,1.23,0,0,1,.8-.46.8.8,0,0,0,.68-.6c.1-.32.22-.51.61-.39s.44-.13.47-.39.28-.46-.11-.59-.38-.25-.21-.5.09-.54.57-.43c1.3.29,1.46.11,1.4-1.2a1.49,1.49,0,0,0,0-.21,2.48,2.48,0,0,1,.37-1.38,7.3,7.3,0,0,0,1-1.81.24.24,0,0,1,.27-.19c.72.1,1.23-.42,1.86-.6a.48.48,0,0,0,.33-.36c.08-.38.26-.3.5-.16a1.55,1.55,0,0,0,1.68-.09,4.35,4.35,0,0,0,1.69-1.58,4.09,4.09,0,0,1,.52-.68c.15-.21.29-.23.38,0s.23.75.33,1.13.18.55.51.63.46-.16.63-.33c.18,0,.38.07.54-.1h.1l.1-.07c.31-.16.27-.48.31-.76a1.59,1.59,0,0,1,.14-.68c.36.27.74.52,1.08.81s.53.35.87,0,.7-.32,1,.16a1.3,1.3,0,0,0,.26.31c.33.26.42.49.12.88s0,1.14.77,1.36c.36.1.75.06.73.62,0,.17.25.2.41.25s.62,0,.77.32a2.36,2.36,0,0,1,.41,1.4c-.07.59-.05,1.19-.07,1.78s-.14.52-.5.27a.4.4,0,0,0-.51,0,3.65,3.65,0,0,0-1.36,1.67c-.1.37.09.6.39.41a3.22,3.22,0,0,1,2.07-.43c.26,0,.46-.2.66-.36a1.21,1.21,0,0,1,1.91.12c.27.28.48.28.72,0a2,2,0,0,1,.51-.41c.33-.21.61-.35.76.19.06.25.23.26.47.15a.48.48,0,0,1,.7.2c.11.21.33.29.48.05a2.2,2.2,0,0,1,1-.7c.35-.18.62-.39.43-.83-.1-.25.06-.25.22-.27a7.6,7.6,0,0,0,.95-.19c.34-.09.43,0,.41.35a1.29,1.29,0,0,0,.09.7.42.42,0,0,0,.35.25c.2,0,.27-.12.34-.26a1.54,1.54,0,0,1,1.9-1,.7.7,0,0,0,.25,0c1-.29,2,.1,3,0,.73-.06,1,.17,1.15.88a3.12,3.12,0,0,1,.13,1.55c-.11.46.47,1.09,1,1.13.16,0,.34,0,.51,0s.34.09.21.36a.55.55,0,0,0,.38.83c.4.14.68.51,1.12.59.2,0,.18.22.17.38a8.93,8.93,0,0,0,.11,1.26A3.07,3.07,0,0,1,266.09,151.39Z"/></g></g></svg>