<svg xmlns="http://www.w3.org/2000/svg" viewBox="0 0 8.84 14.17"><defs><style>.cls-1{fill:#282827;}</style></defs><g id="Calque_2" data-name="Calque 2"><g id="Calque_1-2" data-name="Calque 1"><g id="QRIcRM.tif"><path class="cls-1" d="M4.7.22A17.66,17.66,0,0,0,5,3.12a.25.25,0,0,0,.16.21A2.72,2.72,0,0,1,6.44,4.88c.16.41.31.82.48,1.22a2.07,2.07,0,0,0,.31.61A10.23,10.23,0,0,1,8.44,8.64a4,4,0,0,1,.32,2.57,3.76,3.76,0,0,1-3.4,2.9,7.38,7.38,0,0,1-2.1,0,2.44,2.44,0,0,1-1.13-.37A7.07,7.07,0,0,1,.65,12.24,3.35,3.35,0,0,1,0,10.09a3.46,3.46,0,0,1,.73-2c.22-.28.44-.56.67-.82a4.69,4.69,0,0,0,.9-1.71A7,7,0,0,1,2.75,4.4,2.5,2.5,0,0,1,4,3.25c.41-.16.44-.18.39-.61C4.3,1.82,4.23,1,4.22.18,4.21-.19,4.71.11,4.7.22Z"/></g></g></g></svg>