<svg xmlns="http://www.w3.org/2000/svg" viewBox="0 0 503.81 393.22"><defs><style>.cls-1{fill:#282827;}</style></defs><g id="Calque_2" data-name="Calque 2"><g id="Calque_1-2" data-name="Calque 1"><path class="cls-1" d="M490.88,174.55c-6.6,5-11.58,11.86-19,15.92-2.44,1.33-3.06,4.37-3.31,7-.43,4.47-.7,8.91-2.38,13.19-.95,2.41.16,4.38,2.09,6.15,4.22,3.87,6.08,8.58,4.56,14.39-.41,1.57-.81,3.56-.21,4.91,2.19,5-.14,7-4.37,8.82-2.65,1.17-4.75,3.6-7.05,5.51-3,2.46-5.84,4.83-10.11,4.76a8,8,0,0,0-4.47,2,7.94,7.94,0,0,1-7.94,1.44c-4.58-1.49-8.8,1.19-13.27,1.27-1.45,0-2.28,1.78-2.2,3,.43,6.61-2.82,12.6-3,19.11-.13,4,1.41,5.1,5,4.26,1.29-.31,2.6-.53,3.89-.86,5.79-1.46,4.78-1.17,6.4,4.39a23.48,23.48,0,0,0,10.76,14.07c2.76,1.54,3.74,2.42,2,5.5-2.08,3.76-2.16,7.66,1.59,10.77A5.8,5.8,0,0,1,452,324c.39,3.71,2.25,6.16,5.06,8.65,4.07,3.6,2.3,9,2.81,13.72.46,4.29-.8,6-5.38,5.53-2.73-.29-5.57.53-8.37.82-2.14.23-3.52,1.49-3.61,3.5-.22,4.69-3.37,6.52-7.11,8a20.33,20.33,0,0,0-4,2c-2.32,1.57-4.69,3-.29,5.37,3.11,1.68,2.9,5.78,4.83,8.57-2.2,1-4.17.3-6.08.26-2.71-.06-4.83.51-6.24,3.11-1.79,3.31-5.77,4.37-7.93,7.47-1.18,1.7-2.36.16-2.87-1.1-1.2-2.92-2.23-5.91-3.35-8.86s-2.93-4.76-6.36-4.44-6.9.48-9.95-2.05c-1.94-1.61-2.49.71-3,1.86-2.13,4.5-4.31,9-6.07,13.63-1.05,2.75-2.67,3.76-5.28,3s-7,1.42-7.73-3.9-3.42-9.32-9.1-10.59c-1-.23-2.17-.87-2.18-1.82,0-5.36-3.34-9-6.42-12.78-.51-.63-.89-2-1.31-2-5.13.05-8.58-4.63-13.53-4.79-5.32-.18-10.67-.27-16,0-4.2.24-7-1.28-8.93-4.91s-4.35-6.44-9.07-5.24c-.65.17-1.51.27-1.67-.51-.42-1.93-.33-3.84-3.37-3.73-3.59.13-7,.28-9.67,3.07-1.73,1.8-3.32,3.75-5.19,5.38-4,3.46-8.66,2.8-10.61-2-1.52-3.72-3.76-4.53-7.29-4.34-4.41.23-7.39-1.65-7.92-6.39-.75-6.62-4.57-8.51-10.46-5.07-1.72,1-3.23,2.36-4.95,3.36-5.81,3.39-10.18,1.49-11.26-5-.55-3.25-1.41-6.49-1.1-9.86.38-4.22-2.22-5.33-5.64-4.78a74.08,74.08,0,0,0-8.77,2.46,30.34,30.34,0,0,0-.63-4.3c-.56-2-1.51-3.94-4-3.73-6.79.6-13.93,0-19.4,5.42-2,2-4.09,2.39-5.4-.73-1.72-4.13-4.87-4.46-8.16-2.7-7.56,4.06-14.83,3.69-22.38,0-3.15-1.54-6.85-1.28-9.07,1.82s-3.74,1.63-5.32-.3a15.74,15.74,0,0,1-2-3.44c-1.9-4.09-4.16-5.46-8.51-2.51-4.79,3.24-10.7,1.08-16,2.11-1.57.3-2.08-1.31-2.39-2.68s-.87-2.62-2.61-2.36a3.44,3.44,0,0,0-2.81,2.54c-.3,1-.34,2-.62,2.92-1.27,4.35-1.31,9.65-8.43,8.68-2.34-.32-3.94,2.18-5.18,4.21a29.2,29.2,0,0,1-2.13,3.38c-1.36,1.63-2.67,4-5,3.56s-2-3.19-2.36-5c-.8-4.55-2.42-8.24-7.4-9.6-2.53-.69-3.44-2.94-4-5.28-2.12-8.54-4.58-17-4.86-25.88-.1-2.9-.81-4.11-4-4-6.82.19-13.66.11-20.48-.12-3.62-.13-6.09.76-7.15,4.58a6,6,0,0,1-4.88,4.53c-2.6.46-5,.52-5.79-2.89A5.24,5.24,0,0,0,24.33,285c-6.19-5.61-6.52-12.78-6.14-20.45.3-6.12-2-11.1-8.86-12.52-1.92-.4-3.52-1.63-3.2-3.83C7,242.48,8,236.76,13.38,233.12c11.27-7.59,11-22.21-.45-29.51-7.92-5-8.36-11-1.85-18,4.14-4.47,4.61-10.51,5.08-16.27.22-2.74-2.14-3.49-4.52-3.42A32.1,32.1,0,0,0,1,168.21l-1-.93c1.41-4.05,2.36-8.05,1.51-12.48-.56-2.87-.07-5.79,4.42-4.56,1.44.39,3-.2,2.82-2.25.59.23,1.34.32,1.69.75,5.11,6.17,8.53,5.56,11.46-2.14.59-1.55,1-3.16,1.5-4.75s1.32-3.27,3.11-3.6c5.91-1.07,9.86-4.38,12.31-9.8.66-1.47,1.55-2.83,3.74-1.09,4.65,3.72,10.47,5.36,15.68,8.12,1.61.85,3.42.49,5.14-.71,2.62-1.82,5.55-3,8.91-2.26,4.47,1,7.34-1.22,9.38-4.85,1.3-2.31,2.33-4.78,3.63-7.09.71-1.26,1.57-3.11,3.29-2.48,3.16,1.15,4.52-1.1,6.17-2.75,2.23-2.23,4.23-4.25,7.88-4.51,3.16-.22,5.64-2.71,6.65-5.92s2.1-4.94,5.93-3.77c2.86.87,4.37-1.3,4.62-3.88.18-1.92,2.78-4.48-1.08-5.76-2.48-.82-3.69-2.42-2-4.89,1.32-2,.9-5.26,5.61-4.2C135,85.28,136.63,83.54,136,70.65c0-.66-.14-1.32-.17-2a24.4,24.4,0,0,1,3.59-13.59c3.81-5.69,7.78-11.08,9.82-17.68a2.25,2.25,0,0,1,2.59-1.82c7,1,12.09-4.13,18.22-5.93a4.74,4.74,0,0,0,3.29-3.51c.76-3.67,2.52-2.88,4.85-1.59,5.62,3.11,11,2.58,16.43-.88,6.5-4.13,12.85-8.19,16.52-15.39,1.25-2.47,3.38-4.49,5.09-6.73,1.54-2,2.9-2.23,3.76.46q1.74,5.45,3.22,11c.77,2.85,1.79,5.39,5,6.21,3,.78,4.44-1.56,6.18-3.26,1.76-.16,3.71.74,5.2-.92h1l.95-.68c3.07-1.62,2.69-4.73,3-7.42.27-2.14.13-4.33,1.43-6.71,3.54,2.64,7.2,5.09,10.53,7.92,2.91,2.47,5.17,3.49,8.57.42,4.26-3.86,6.85-3.18,10.12,1.53a13.47,13.47,0,0,0,2.55,3c3.29,2.53,4.17,4.77,1.22,8.63-3.6,4.71.16,11.2,7.5,13.28,3.48,1,7.36.65,7.13,6.11-.07,1.64,2.48,1.91,4,2.47,2.59.95,6.1.29,7.59,3.11,2.25,4.24,4.64,8.84,4,13.69-.76,5.82-.56,11.6-.75,17.4-.14,4.42-1.29,5.12-4.85,2.69-1.77-1.21-3.56-1.63-5-.35-5.38,4.65-11.15,9.07-13.24,16.39-1,3.56.86,5.84,3.82,4,6.4-4,13-4.79,20.21-4.2,2.56.21,4.48-2,6.46-3.47,7.41-5.64,12.39-5.46,18.69,1.13,2.61,2.74,4.72,2.74,7,0a19.49,19.49,0,0,1,5-4c3.28-2,6-3.45,7.42,1.89.66,2.46,2.29,2.57,4.66,1.5s5.09-1.3,6.8,1.93c1.09,2.08,3.22,2.84,4.74.46,2.33-3.65,6.07-5,9.6-6.84s6-3.82,4.19-8.17c-1-2.36.59-2.36,2.18-2.62a82.87,82.87,0,0,0,9.27-1.79c3.34-1,4.17.38,4,3.39-.09,2.31-.31,4.68.87,6.85A4.07,4.07,0,0,0,403.82,89c1.87.1,2.55-1.16,3.24-2.56,4.18-8.4,9.29-11,18.59-9.54a5.92,5.92,0,0,0,2.48,0c9.68-2.78,19.32,1,29,.15,7.13-.64,9.37,1.67,11.17,8.58,1.3,5,2.58,9.81,1.29,15.17-1.09,4.5,4.65,10.72,9.37,11,1.66.11,3.33,0,5,.1,2.2.2,3.38,1,2.15,3.55-1.9,4-.39,6.77,3.67,8.15s6.69,5,11,5.74c1.9.35,1.74,2.18,1.67,3.69-.17,4.17.59,8.24,1.09,12.37C505,157.5,500.43,167.3,490.88,174.55Z"/></g></g></svg>