<svg xmlns="http://www.w3.org/2000/svg" xmlns:xlink="http://www.w3.org/1999/xlink" viewBox="0 0 200.07 189.41"><defs><style>.cls-1{fill:url(#Dégradé_sans_nom_28);}.cls-2{fill:url(#Dégradé_sans_nom_27);}.cls-3{fill:#282827;}.cls-4{mask:url(#mask);}.cls-5{fill:#845b3a;}</style><linearGradient id="Dégradé_sans_nom_28" x1="94.73" y1="111.72" x2="99.87" y2="102.26" gradientUnits="userSpaceOnUse"><stop offset="0.19" stop-color="#1d1d1b"/><stop offset="0.37" stop-color="#545452"/><stop offset="0.78" stop-color="#dcdcdb"/><stop offset="0.88" stop-color="#fff"/></linearGradient><linearGradient id="Dégradé_sans_nom_27" x1="81.96" y1="89.75" x2="91.91" y2="91.21" gradientUnits="userSpaceOnUse"><stop offset="0.16" stop-color="#1d1d1b"/><stop offset="0.2" stop-color="#2f2f2d"/><stop offset="0.39" stop-color="#787877"/><stop offset="0.57" stop-color="#b2b2b1"/><stop offset="0.71" stop-color="#dcdcdc"/><stop offset="0.83" stop-color="#f6f6f5"/><stop offset="0.89" stop-color="#fff"/></linearGradient><mask id="mask" x="79.23" y="82.65" width="41.6" height="38.64" maskUnits="userSpaceOnUse"><rect class="cls-1" x="79.23" y="82.65" width="41.6" height="38.64"/><rect class="cls-2" x="79.23" y="83.71" width="41.6" height="17.38"/></mask></defs><g id="Calque_2" data-name="Calque 2"><g id="Calque_1-2" data-name="Calque 1"><path class="cls-3" d="M60.2,178.19h79.67"/><polygon class="cls-3" points="60.2 178.19 70.16 178.07 80.12 178.03 100.04 177.94 119.95 178.03 129.91 178.07 139.87 178.19 129.91 178.31 119.95 178.36 100.04 178.44 80.12 178.36 70.16 178.31 60.2 178.19"/><path class="cls-3" d="M69.06,185.55a2.13,2.13,0,0,0-.29-.64c-.15-.2-.25-.24-.63-.24h-.63c-.24,0-.27,0-.27.26v1.64h.83c.47,0,.52-.11.63-.62H69v1.6H68.7c-.09-.51-.18-.63-.63-.63h-.83v1.21c0,.66.06.7.72.75v.25H65.72v-.25c.57,0,.63-.09.63-.75v-2.78c0-.65-.06-.7-.63-.75v-.25h3.52c0,.17,0,.76.08,1.17Z"/><path class="cls-3" d="M73.85,187.91c0,.2-.25,1-.32,1.22H69.8v-.24c.68-.06.72-.11.72-.72v-2.85c0-.63-.08-.67-.6-.72v-.25h3.45c0,.15,0,.73.07,1.16l-.26,0a2,2,0,0,0-.29-.64c-.12-.18-.24-.23-.64-.23h-.56c-.26,0-.28,0-.28.26v1.57h.75c.46,0,.52-.11.62-.63h.27v1.6h-.27c-.11-.54-.16-.62-.63-.62h-.74v1.33c0,.51.06.63.49.63h.58c.42,0,.52-.05.68-.25a3,3,0,0,0,.43-.71Z"/><path class="cls-3" d="M78.84,189.18H78.6c-.8,0-1.08-.22-1.33-.58a12.53,12.53,0,0,1-.76-1.27c-.13-.21-.23-.25-.51-.25h-.19v1.11c0,.6.08.65.64.71v.25H74.3v-.25c.58-.06.64-.11.64-.71v-2.86c0-.6-.08-.66-.64-.71v-.25h2a2.14,2.14,0,0,1,1.27.27,1.12,1.12,0,0,1,.5,1,1.29,1.29,0,0,1-.93,1.21c.12.23.41.71.63,1.05a8,8,0,0,0,.57.76,1,1,0,0,0,.49.33Zm-2.78-2.4a1.11,1.11,0,0,0,.76-.2,1.05,1.05,0,0,0,.36-.87c0-.79-.47-1.07-.94-1.07-.2,0-.31,0-.35.08s-.08.13-.08.29v1.77Z"/><path class="cls-3" d="M83.18,189.13v-.25c.58-.06.61-.1.61-.81v-2.92c-.55,1.3-1.27,2.94-1.7,4h-.23c-.4-1-1-2.61-1.57-3.91-.1,2.4-.11,2.9-.11,3.12,0,.4.17.49.71.54v.25h-1.8v-.25c.42,0,.61-.12.67-.55,0-.25,0-.62.23-3.14,0-.36,0-.53-.67-.59v-.25h1.48l1.49,3.41,1.54-3.41h1.46v.25c-.61.06-.68.13-.66.69l0,2.78c0,.71,0,.74.66.81v.25Z"/><path class="cls-3" d="M89.86,187.91c0,.2-.24,1-.31,1.22H85.82v-.24c.67-.06.72-.11.72-.72v-2.85c0-.63-.08-.67-.6-.72v-.25h3.45c0,.15,0,.73.07,1.16l-.26,0a2,2,0,0,0-.29-.64c-.12-.18-.25-.23-.64-.23h-.56c-.26,0-.28,0-.28.26v1.57h.75c.46,0,.52-.11.62-.63h.27v1.6H88.8c-.11-.54-.17-.62-.63-.62h-.74v1.33c0,.51.06.63.49.63h.57c.43,0,.53-.05.69-.25a3,3,0,0,0,.43-.71Z"/><path class="cls-3" d="M94.16,184.35a3,3,0,0,1,2.12.64,2.1,2.1,0,0,1,.65,1.59,2.37,2.37,0,0,1-.92,1.95,3.46,3.46,0,0,1-2.12.6H92v-.25c.59,0,.64-.11.64-.72v-2.84c0-.62-.08-.67-.64-.72v-.25Zm-.66,3.76c0,.53.17.7.71.7,1.11,0,1.72-.76,1.72-2.12a2.08,2.08,0,0,0-.64-1.67,1.74,1.74,0,0,0-1.21-.37c-.3,0-.44,0-.49.1s-.09.17-.09.41Z"/><path class="cls-3" d="M102.64,184.6c-.47,0-.61.17-.63.46a9.91,9.91,0,0,0,0,1.05v.9a2.4,2.4,0,0,1-.51,1.73,1.89,1.89,0,0,1-1.38.5,2,2,0,0,1-1.27-.37,1.81,1.81,0,0,1-.64-1.63v-1.87c0-.67-.07-.72-.64-.77v-.25h2.16v.25c-.57.05-.63.1-.63.77v1.92c0,.91.44,1.47,1.26,1.47s1.3-.65,1.3-1.79v-.86a10.21,10.21,0,0,0,0-1.05c0-.34-.22-.43-.74-.46v-.25h1.8Z"/><path class="cls-3" d="M3.62,168.18h3v1.27H2.35v-37.7H3.62Z"/><path class="cls-3" d="M12.67,135.34h-.76v-3.48h1.27v4.25c-.18,1-.6,1.61-1.27,1.66V137c.51-.09.76-.59.76-1.5Z"/><path class="cls-3" d="M24.82,155.67l1.11,13.78H24.66l-.9-12.54H20.94l-1.06,12.54H18.45l3.49-37.7h.95l1.93,23.89Zm-1.16,0-1.19-16.58-1.4,16.58Z"/><path class="cls-3" d="M36.17,150.1v17c0,1.56-.43,2.35-1.3,2.35H32.5c-.86,0-1.29-.79-1.29-2.35v-33c0-1.53.6-2.3,1.82-2.3h1.32c1.21,0,1.82.77,1.82,2.3v9.87H34.9v-9.87c0-.69-.18-1-.53-1H33c-.35,0-.53.34-.53,1v32.39c0,1.16.28,1.74.85,1.74h.74q.84,0,.84-1.74V151.36H33.21V150.1Z"/><path class="cls-3" d="M41.45,131.75h1.27l3,27.85V131.75H47v37.7H45.72l-3-25.06v25.06H41.45Z"/><path class="cls-3" d="M56.55,131.75V133h-3V150.1h3v1.26h-3v16.82h3v1.27H52.27v-37.7Z"/><path class="cls-3" d="M68.19,155.67l1.11,13.78H68l-.9-12.54H64.31l-1.06,12.54H61.83l3.48-37.7h1l1.93,23.89Zm-1.16,0-1.19-16.58-1.4,16.58Z"/><path class="cls-3" d="M75.85,166.44q0,1.74.84,1.74h.74q.84,0,.84-1.74V131.8h1.27v35.3c0,1.56-.43,2.35-1.29,2.35H75.87c-.86,0-1.29-.79-1.29-2.35V131.8h1.27Z"/><path class="cls-3" d="M101.48,131.75c1.21,0,1.82.77,1.82,2.3v33c0,1.56-.43,2.35-1.29,2.35H98.23v-37.7Zm-.29,36.43q.84,0,.84-1.74V134.05c0-.69-.17-1-.53-1h-2v35.16Z"/><path class="cls-3" d="M112.86,131.75V133h-3V150.1h3v1.26h-3v16.82h3v1.27h-4.28v-37.7Z"/><path class="cls-3" d="M136.51,167.1c0,1.56-.43,2.35-1.29,2.35h-2.38c-.86,0-1.29-.79-1.29-2.35v-9.88h1.26v9.22c0,1.16.29,1.74.85,1.74h.74q.84,0,.84-1.74V152c0-.7-.25-1.05-.76-1.05h-1.72a2.48,2.48,0,0,1-1.21-2V134.05c0-1.53.6-2.3,1.82-2.3h1.32c1.21,0,1.82.77,1.82,2.3v9.87h-1.27v-9.87c0-.69-.17-1-.53-1h-1.37c-.35,0-.53.34-.53,1v14.59c0,.71.26,1.06.77,1.06h1.79a2.52,2.52,0,0,1,1.14,2Z"/><path class="cls-3" d="M144.93,131.75c1.21,0,1.82.77,1.82,2.3v33c0,1.56-.43,2.35-1.29,2.35h-2.38c-.86,0-1.29-.79-1.29-2.35v-33c0-1.53.61-2.3,1.82-2.3Zm-.29,36.43q.84,0,.84-1.74V134.05c0-.69-.17-1-.52-1h-1.38c-.35,0-.52.34-.52,1v32.39q0,1.74.84,1.74Z"/><path class="cls-3" d="M153.3,168.18h3v1.27H152v-37.7h1.27Z"/><path class="cls-3" d="M164.73,131.75c1.21,0,1.82.77,1.82,2.3v33c0,1.56-.43,2.35-1.29,2.35h-2.38c-.86,0-1.29-.79-1.29-2.35v-33c0-1.53.6-2.3,1.82-2.3Zm-.29,36.43q.84,0,.84-1.74V134.05c0-.69-.17-1-.52-1h-1.38c-.35,0-.53.34-.53,1v32.39c0,1.16.29,1.74.85,1.74Z"/><path class="cls-3" d="M176.79,150.1v17c0,1.56-.43,2.35-1.29,2.35h-2.38c-.86,0-1.29-.79-1.29-2.35v-33c0-1.53.61-2.3,1.82-2.3H175c1.22,0,1.82.77,1.82,2.3v9.87h-1.26v-9.87c0-.69-.18-1-.53-1h-1.37c-.36,0-.53.34-.53,1v32.39q0,1.74.84,1.74h.74c.56,0,.85-.58.85-1.74V151.36h-1.69V150.1Z"/><path class="cls-3" d="M182.07,131.75h1.27l3,27.85V131.75h1.27v37.7h-1.27l-3-25.06v25.06h-1.27Z"/><path class="cls-3" d="M197.17,131.75V133h-3V150.1h3v1.26h-3v16.82h3v1.27H192.9v-37.7Z"/><path class="cls-3" d="M0,110.66c5.84-.21,11.68-.3,17.53-.38s11.68-.08,17.52-.12,11.69,0,17.53.11l8.76.14c2.92.09,5.85.14,8.77.25-2.92.11-5.85.16-8.77.24l-8.76.14c-5.84.08-11.68.08-17.53.12s-11.68,0-17.52-.12S5.84,110.87,0,110.66Z"/><path class="cls-3" d="M.08,121.36c5.84-.2,11.67-.3,17.51-.38s11.67-.07,17.5-.12,11.68,0,17.51.12l8.75.14c2.92.08,5.84.13,8.76.24-2.92.12-5.84.16-8.76.25l-8.75.14c-5.83.08-11.67.07-17.51.11s-11.67,0-17.5-.11S5.92,121.57.08,121.36Z"/><path class="cls-3" d="M130.05,110.66c5.83-.21,11.67-.3,17.5-.38s11.67-.08,17.51-.12,11.67,0,17.5.11l8.76.14c2.92.09,5.83.14,8.75.25-2.92.11-5.83.16-8.75.24l-8.76.14c-5.83.08-11.67.08-17.5.12s-11.67,0-17.51-.12S135.88,110.87,130.05,110.66Z"/><path class="cls-3" d="M130.05,121.36c5.83-.2,11.67-.3,17.5-.38s11.67-.07,17.51-.12,11.67,0,17.5.12l8.76.14c2.92.08,5.83.13,8.75.24-2.92.12-5.83.16-8.75.25l-8.76.14c-5.83.08-11.67.07-17.5.11s-11.67,0-17.51-.11S135.88,121.57,130.05,121.36Z"/><path class="cls-3" d="M55.86,104.5c.2,1,.35,1.91.5,2.87v17.19c-.17,1-.3,1.91-.5,2.87-.21-1-.34-1.91-.5-2.87V107.37C55.5,106.41,55.65,105.45,55.86,104.5Z"/><path class="cls-3" d="M15.13,104.5c.2,1,.35,1.91.5,2.87v17.19c-.17,1-.3,1.91-.5,2.87-.21-1-.34-1.91-.5-2.87V107.37C14.77,106.41,14.92,105.45,15.13,104.5Z"/><path class="cls-3" d="M145.37,104.5c.21,1,.36,1.91.51,2.87v17.19c-.17,1-.3,1.91-.5,2.87-.2-1-.33-1.91-.5-2.87V107.37C145,106.41,145.16,105.45,145.37,104.5Z"/><path class="cls-3" d="M185.69,104.5c.21,1,.36,1.91.5,2.87v17.19c-.17,1-.3,1.91-.5,2.87-.2-1-.33-1.91-.5-2.87V107.37C185.33,106.41,185.48,105.45,185.69,104.5Z"/><path class="cls-3" d="M37.6,65.85c-1.23,3.05-9.36,9.94-13.26,10.79l.11,32H21.1c0-.21,1.29-31.93,1.29-31.93S8.2,67.61,8.41,63.31C8.66,58.33,25.69,0,25.69,0S39.43,61.3,37.6,65.85Z"/><path class="cls-3" d="M44,83.53c0,3-9.67,8.57-9.67,8.57l0,16.58H31.74c0-.18.61-16.58.61-16.58S22,86.59,22.14,83c.2-4.14,13.32-64.64,13.32-64.64S44,78.77,44,83.53Z"/><path class="cls-3" d="M184.6,81.36c-.92,3.15-14.69,4.25-14.69,4.25l.4,23.07h-2.54l.49-23s-15.19-1.28-15-5.58c.24-5,15.55-37.88,15.55-37.88S186.12,76.2,184.6,81.36Z"/><g id="QRIcRM.tif"><path class="cls-3" d="M180.84,83.6c-.06,0,0,.07,0,.11a6,6,0,0,0,.09,1,.08.08,0,0,0,0,.07,1,1,0,0,1,.46.55c.05.15.11.29.16.43a.76.76,0,0,0,.11.22,3.44,3.44,0,0,1,.42.69,1.43,1.43,0,0,1,.11.91,1.3,1.3,0,0,1-1.18,1,2.18,2.18,0,0,1-.72,0,.86.86,0,0,1-.39-.13,2.56,2.56,0,0,1-.52-.52,1.24,1.24,0,0,1,0-1.47,3.25,3.25,0,0,1,.23-.29,1.76,1.76,0,0,0,.31-.61,2,2,0,0,1,.15-.41.88.88,0,0,1,.43-.4c.14-.06.16-.07.14-.22a8.48,8.48,0,0,1-.06-.88,1.2,1.2,0,0,1,.05-.38s0-.07.06-.06.08,0,.08.07v.09C180.81,83.48,180.88,83.59,180.84,83.6Z"/></g><g id="QRIcRM.tif-2" data-name="QRIcRM.tif"><path class="cls-3" d="M111.84,183a8.67,8.67,0,0,0,.12,1.34.12.12,0,0,0,.07.1,1.25,1.25,0,0,1,.61.71c.08.19.15.38.22.57a.94.94,0,0,0,.15.28,5.53,5.53,0,0,1,.56.89,1.9,1.9,0,0,1,.15,1.19,1.74,1.74,0,0,1-1.58,1.34,3.16,3.16,0,0,1-1,0,1.07,1.07,0,0,1-.52-.17,3.37,3.37,0,0,1-.69-.67,1.57,1.57,0,0,1-.29-1,1.63,1.63,0,0,1,.34-.93l.31-.38a2.06,2.06,0,0,0,.41-.79,3.44,3.44,0,0,1,.21-.53,1.17,1.17,0,0,1,.57-.53c.19-.08.21-.09.19-.28a10.94,10.94,0,0,1-.09-1.14C111.61,182.77,111.84,182.91,111.84,183Z"/></g><path class="cls-3" d="M106.68,184.34a2.32,2.32,0,0,1,1.29.31,1.23,1.23,0,0,1,.55,1.08,1.55,1.55,0,0,1-1.67,1.52h-.21l-.46-.12v1c0,.62,0,.64.71.7v.25h-2.23v-.25c.58-.06.63-.09.63-.71v-2.84c0-.63-.07-.68-.63-.73v-.25Zm-.5,2.49a1.19,1.19,0,0,0,.44.08c.4,0,1-.22,1-1.17s-.48-1.11-1-1.11a.57.57,0,0,0-.34.08s-.07.12-.07.26Z"/><path class="cls-3" d="M114.9,189.12v-.25c.58-.05.64-.09.64-.71v-2.84c0-.63-.07-.67-.64-.73v-.25h2.17v.25c-.57.06-.64.1-.64.73v2.84c0,.62.06.65.64.71v.25Z"/><path class="cls-3" d="M122.27,189.17H122c-.8,0-1.08-.22-1.33-.58a12.39,12.39,0,0,1-.76-1.26.47.47,0,0,0-.51-.26h-.19v1.1c0,.61.08.65.64.71v.25h-2.15v-.25c.58-.06.64-.1.64-.71V185.3c0-.59-.08-.65-.64-.71v-.25h2a2.22,2.22,0,0,1,1.27.27,1.13,1.13,0,0,1,.5,1,1.3,1.3,0,0,1-.93,1.22c.12.22.41.7.63,1a6.88,6.88,0,0,0,.57.76.93.93,0,0,0,.49.33Zm-2.78-2.4a1.17,1.17,0,0,0,.76-.19,1.07,1.07,0,0,0,.36-.88.92.92,0,0,0-.94-1.06.56.56,0,0,0-.35.07c-.06,0-.08.13-.08.29v1.77Z"/><path class="cls-3" d="M122.56,189.12v-.25c.58-.05.64-.09.64-.71v-2.84c0-.63-.07-.67-.64-.73v-.25h2.17v.25c-.57.06-.64.1-.64.73v2.84c0,.62.06.65.64.71v.25Z"/><path class="cls-3" d="M129.36,187.9c0,.2-.25,1-.32,1.22h-3.73v-.24c.68-.06.72-.11.72-.72v-2.84c0-.64-.08-.68-.6-.73v-.25h3.45c0,.15,0,.74.07,1.17l-.26,0a2,2,0,0,0-.29-.64c-.12-.18-.24-.22-.64-.22h-.56c-.26,0-.28,0-.28.25v1.57h.75c.46,0,.52-.11.63-.63h.26v1.6h-.26c-.11-.54-.17-.62-.64-.62h-.74v1.33c0,.51.06.63.49.64H128c.42,0,.52-.06.68-.26a3,3,0,0,0,.43-.71Z"/><path class="cls-3" d="M134.35,189.17h-.24c-.79,0-1.07-.22-1.33-.58a14.52,14.52,0,0,1-.76-1.26c-.12-.21-.22-.26-.51-.26h-.18v1.1c0,.61.07.65.64.71v.25h-2.15v-.25c.57-.06.63-.1.63-.71V185.3c0-.59-.07-.65-.63-.71v-.25h2a2.28,2.28,0,0,1,1.28.27,1.14,1.14,0,0,1,.49,1,1.29,1.29,0,0,1-.93,1.22c.12.22.42.7.64,1a6,6,0,0,0,.56.76.93.93,0,0,0,.49.33Zm-2.77-2.4a1.14,1.14,0,0,0,.75-.19,1,1,0,0,0,.37-.88.93.93,0,0,0-.94-1.06.6.6,0,0,0-.36.07c-.06,0-.07.13-.07.29v1.77Z"/><g class="cls-4"><path class="cls-5" d="M119.53,107.81a.61.61,0,0,1-.07.47c-.32.45-1.38.37-1.93.21-1-.3-2.26-2.84-2.69-3.14-1.94-1.33-2.82-.85-3.26-.69s-.41.7-.34,1.63A121.31,121.31,0,0,0,113.6,121l-4.48.31c-.11-2.25-2-11.05-2.87-14.81-.19-.84-.33-1.42-.37-1.59-.59-2.39-7.3-7.59-9.34-9.11a.93.93,0,0,0-.56-.12c-1.76,0-6.41,1.78-7.64,1.26a82.18,82.18,0,0,1-8.84-4.59l1.68-1.87c.13.16,6.81,3.19,7.55,3.19,1.16,0,5.48-3.32,5.74-3.74L92.05,91.8c-2.75-1.09-6.13-2.89-8.87-4l.89-1.27a53.5,53.5,0,0,0,8.12,3.14c.39,0,.76-.35,1.16-.67,0,0,.61-.56,1-1,.19-.21.32-.36.27-.37-.66-.11-.53-.64-.53-.64,1.14-1.83,6.15-2.25,7.52-1.84,2.28.68,5.51,9.37,8.84,12.15,1.36,1.13,1.66,1,2.38.87,1.37-.22,2.48-.82,3.46-.77a4.54,4.54,0,0,1,3.54,2.27,5,5,0,0,1,.42,2.39C120.33,104.84,119.3,106.37,119.53,107.81Z"/></g><path class="cls-3" d="M97.73,86.68a1.31,1.31,0,0,0-1,.3,9.86,9.86,0,0,1-.94.68,1.74,1.74,0,0,1-1.21.14,1,1,0,0,1-.54-.4.6.6,0,0,1-.08-.38.71.71,0,0,1,.16-.35,6,6,0,0,1,2.05-1.19,13.31,13.31,0,0,1,2.23-.67,8.14,8.14,0,0,1,2.37-.14,3.37,3.37,0,0,1,2.19,1.07,19.86,19.86,0,0,1,2.51,3.92,36.87,36.87,0,0,0,5.08,7.53c.5.54,1.08,1.15,1.81,1a14,14,0,0,0,2.21-.54,4.41,4.41,0,0,1,2.31-.28,4.74,4.74,0,0,1,2.13,1,3.91,3.91,0,0,1,1.36,2,11.7,11.7,0,0,1,.21,2.34,12.05,12.05,0,0,1-.26,2.33,15.75,15.75,0,0,0-.41,2.19,2.86,2.86,0,0,0,0,.51,1,1,0,0,1-.15.82,1.69,1.69,0,0,1-1.35.44,2.62,2.62,0,0,1-1.29-.29,4.34,4.34,0,0,1-.93-.87c-.5-.62-.91-1.29-1.33-1.89a1.57,1.57,0,0,0-.15-.19.44.44,0,0,0-.14-.12c-.15-.11-.31-.2-.46-.29a4.25,4.25,0,0,0-1-.42,2,2,0,0,0-1,0,1.86,1.86,0,0,0-.4.13.51.51,0,0,0-.11.26,8.21,8.21,0,0,0,0,2.16c.13,1.5.37,3,.61,4.51.49,3,1,6,1.33,9.07h-.07c-.56-3-1.25-6-1.84-9-.29-1.5-.58-3-.77-4.54a8.82,8.82,0,0,1,0-2.41,1.15,1.15,0,0,1,.43-.72,2.23,2.23,0,0,1,.67-.25,2.64,2.64,0,0,1,1.31,0,4.84,4.84,0,0,1,1.14.49,5.48,5.48,0,0,1,.52.31,1.5,1.5,0,0,1,.29.25c.08.09.14.17.2.25.47.65.84,1.3,1.29,1.87a3.27,3.27,0,0,0,.72.72,2,2,0,0,0,.91.2,1.21,1.21,0,0,0,.79-.16s0-.06,0-.27a2.76,2.76,0,0,1,0-.64,13.36,13.36,0,0,1,.48-2.3,11.23,11.23,0,0,0,.22-4.42,3.58,3.58,0,0,0-1.15-1.78,4.54,4.54,0,0,0-2-1,4.12,4.12,0,0,0-2.18.24,15.52,15.52,0,0,1-2.24.53,1.51,1.51,0,0,1-1.17-.26,4.72,4.72,0,0,1-.88-.78A37.3,37.3,0,0,1,104.89,90a23.75,23.75,0,0,0-2.41-3.79c-.93-1.12-2.55-1.05-4-.82a12.78,12.78,0,0,0-2.17.55,5.7,5.7,0,0,0-1.93,1c-.23.17,0,.51.27.61a1.44,1.44,0,0,0,1-.06,8.54,8.54,0,0,0,1-.62,1.45,1.45,0,0,1,1.13-.23Z"/><path class="cls-3" d="M109.11,121.29a50.23,50.23,0,0,0-1.09-5.93q-.63-2.94-1.34-5.88l-.69-2.93-.35-1.46a3.8,3.8,0,0,0-.62-1.24,27.71,27.71,0,0,0-4.18-4.21c-.75-.65-1.52-1.29-2.3-1.92l-1.18-.94-.59-.46a2,2,0,0,0-.49-.33,4.44,4.44,0,0,0-1.37.11c-.48.09-1,.21-1.46.32-1,.24-2,.49-3,.67a7.86,7.86,0,0,1-1.56.15,2.06,2.06,0,0,1-.82-.2l-.68-.32c-.91-.44-1.81-.89-2.71-1.35s-1.78-1-2.66-1.44a21.9,21.9,0,0,1-2.56-1.6A54.14,54.14,0,0,0,84.88,95l2.75,1.25.69.29a1.19,1.19,0,0,0,.63.13,6.71,6.71,0,0,0,1.44-.19c1-.21,1.93-.48,2.91-.73.49-.12,1-.24,1.48-.34a4.76,4.76,0,0,1,1.63-.13,2.25,2.25,0,0,1,.78.45l.6.46,1.2.93q1.19.93,2.34,1.92a27.63,27.63,0,0,1,4.25,4.39,4.12,4.12,0,0,1,.7,1.46l.34,1.47c.22,1,.43,2,.62,3A86,86,0,0,1,109.11,121.29Z"/><path class="cls-3" d="M111.39,121.36a61.5,61.5,0,0,1-1.74-8c-.2-1.34-.38-2.67-.51-4a14,14,0,0,1-.11-2.07,17.41,17.41,0,0,1,.27-2c.1.68.11,1.37.22,2s.27,1.31.39,2c.29,1.34.52,2.7.74,4A58.91,58.91,0,0,1,111.39,121.36Z"/><path class="cls-3" d="M81.18,90.46l3.57,1.33c1.18.43,2.36.93,3.53,1.32l.4.12a.57.57,0,0,0,.31,0,5.41,5.41,0,0,0,.8-.35c.55-.27,1.08-.61,1.62-.92s1.07-.67,1.6-1a14.93,14.93,0,0,0,1.55-1.09,15.39,15.39,0,0,1-2.82,2.59,14.59,14.59,0,0,1-1.61,1.08,4.77,4.77,0,0,1-.94.42,1.19,1.19,0,0,1-.63,0,4.06,4.06,0,0,1-.51-.14,31.7,31.7,0,0,1-3.53-1.5A26.57,26.57,0,0,1,81.18,90.46Z"/><path class="cls-3" d="M92,92c-3-1.3-5.83-2.9-8.81-4.19,3,1.14,6,2.59,9,3.72Z"/><path class="cls-3" d="M84.08,86.53a20.67,20.67,0,0,0,2.33,1c.79.29,1.59.57,2.38.84s1.61.51,2.4.79a8,8,0,0,0,1.14.38c.31,0,.68-.32,1-.52l0,0c-.29.3-.5.7-1.05.82A5.56,5.56,0,0,1,91,89.59a21.16,21.16,0,0,1-2.38-.89q-1.18-.48-2.34-1a19.26,19.26,0,0,1-2.27-1.14Z"/><path class="cls-3" d="M116.88,98.36a2.81,2.81,0,0,0-1.13.43,1.54,1.54,0,0,0-.82.62,4.23,4.23,0,0,1-1.59,1.28l-.29.13-.07,0s.1-.11.08-.19,0-.06,0,0a.76.76,0,0,0,.2.12,2,2,0,0,0,.52.18,3.29,3.29,0,0,0,1.13.1,2.61,2.61,0,0,0,1.07-.28,3.64,3.64,0,0,0,1.18-.39,3.17,3.17,0,0,1-.85,1.07,3.75,3.75,0,0,1-1.35.35,4.22,4.22,0,0,1-1.37-.12,2.92,2.92,0,0,1-.66-.24,1.32,1.32,0,0,1-.34-.2.72.72,0,0,1-.32-.53.52.52,0,0,1,.23-.45,1.07,1.07,0,0,1,.2-.11L113,100a3.43,3.43,0,0,0,.49-.28,3.69,3.69,0,0,0,.83-.8,2.42,2.42,0,0,1,1.17-.86A2.36,2.36,0,0,1,116.88,98.36Z"/></g></g></svg>