<svg xmlns="http://www.w3.org/2000/svg" viewBox="0 0 200.07 189.42"><defs><style>.cls-1{fill:#282827;}.cls-2{fill:none;stroke:#282827;stroke-miterlimit:10;}</style></defs><g id="Calque_2" data-name="Calque 2"><g id="Calque_1-2" data-name="Calque 1"><path class="cls-1" d="M60.2,178.19h79.67"/><path class="cls-1" d="M60.2,178.19c6.64-.2,13.28-.3,19.92-.38s13.28-.08,19.92-.12l19.91.12,10,.14c3.32.08,6.64.13,10,.24-3.32.12-6.64.16-10,.25l-10,.14-19.91.11c-6.64,0-13.28,0-19.92-.12S66.84,178.4,60.2,178.19Z"/><path class="cls-1" d="M4.75,168.18H8.49v1.27H3.18v-37.7H4.75Z"/><path class="cls-1" d="M20.37,131.75V133H16.63V150.1h3.74v1.26H16.63v16.82h3.74v1.27H15.05v-37.7Z"/><path class="cls-1" d="M49.76,143.92H48.19v-9.87c0-.69-.22-1-.66-1h-1.7c-.44,0-.66.34-.66,1v32.39q0,1.74,1,1.74h.92q1.05,0,1-1.74v-9.22h1.57v9.88c0,1.56-.53,2.35-1.61,2.35H45.2c-1.07,0-1.61-.79-1.61-2.35v-33a2,2,0,0,1,2.27-2.3H47.5a2,2,0,0,1,2.26,2.3Z"/><path class="cls-1" d="M60.23,131.75a2,2,0,0,1,2.26,2.3v33c0,1.56-.53,2.35-1.6,2.35h-3c-1.07,0-1.61-.79-1.61-2.35v-33a2,2,0,0,1,2.27-2.3Zm-.36,36.43q1.05,0,1.05-1.74V134.05c0-.69-.22-1-.66-1h-1.7c-.44,0-.66.34-.66,1v32.39q0,1.74,1.05,1.74Z"/><path class="cls-1" d="M70.63,166.44q0,1.74,1.05,1.74h.92q1.05,0,1.05-1.74V131.8h1.57v35.3c0,1.56-.54,2.35-1.61,2.35h-3c-1.07,0-1.61-.79-1.61-2.35V131.8h1.58Z"/><path class="cls-1" d="M81.78,131.75h1.58L87.1,159.6V131.75h1.57v37.7H87.1l-3.74-25.06v25.06H81.78Z"/><path class="cls-1" d="M99.3,133v36.43H97.73V133h-2.5v-1.27h6.27V133Z"/><path class="cls-1" d="M109.64,169.45h-1.58v-37.7h5.18a1,1,0,0,1,1.12,1.13V149c0,.95-.34,1.5-1,1.64l.53.18c.33.13.49.58.49,1.35v17.32h-1.57v-17c0-.7-.32-1.06-1-1.06h-2.19Zm3.15-20.67V133.52c0-.34-.11-.5-.33-.5h-2.82V150.1h2.19Q112.79,150.1,112.79,148.78Z"/><path class="cls-1" d="M124.56,150.73l-3.64-19h1.57l2.86,16.53,2.82-16.53h1.57l-3.6,19v18.72h-1.58Z"/><path class="cls-1" d="M159.14,143.92h-1.57v-9.87c0-.69-.22-1-.66-1H155.2c-.43,0-.65.34-.65,1v32.39q0,1.74,1,1.74h.92q1,0,1-1.74v-9.22h1.57v9.88c0,1.56-.54,2.35-1.61,2.35h-2.95c-1.07,0-1.61-.79-1.61-2.35v-33a2,2,0,0,1,2.27-2.3h1.64a2,2,0,0,1,2.26,2.3Z"/><path class="cls-1" d="M167.28,168.18H171v1.27H165.7v-37.7h1.58Z"/><path class="cls-1" d="M179.15,166.44q0,1.74,1,1.74h.92q1,0,1-1.74V131.8h1.58v35.3c0,1.56-.54,2.35-1.61,2.35h-2.95c-1.08,0-1.61-.79-1.61-2.35V131.8h1.57Z"/><path class="cls-1" d="M190.31,131.75h5.18a1,1,0,0,1,1.12,1.13V149c0,.95-.34,1.5-1,1.64l.52.18c.33.13.5.58.5,1.35v16.13c0,.79-.27,1.19-.79,1.19h-5.51Zm4.72,17V133.52c0-.34-.11-.5-.33-.5h-2.82V150.1h2.2C194.71,150.1,195,149.66,195,148.78Zm-3.15,2.58v16.82h2.63c.35,0,.52-.29.52-.87V152.42c0-.7-.32-1.06-.95-1.06Z"/><path class="cls-1" d="M0,110.66c5.84-.21,11.68-.3,17.53-.38s11.68-.08,17.52-.12,11.69,0,17.53.11l8.76.14c2.92.09,5.85.14,8.77.25-2.92.11-5.85.16-8.77.24l-8.76.14c-5.84.08-11.68.08-17.53.12s-11.68,0-17.52-.12S5.84,110.87,0,110.66Z"/><path class="cls-1" d="M.08,121.36c5.84-.2,11.67-.3,17.51-.38s11.67-.07,17.5-.12,11.68,0,17.51.12l8.75.14c2.92.08,5.84.13,8.76.24-2.92.12-5.84.16-8.76.25l-8.75.14c-5.83.08-11.67.07-17.51.11s-11.67,0-17.5-.11S5.92,121.57.08,121.36Z"/><path class="cls-1" d="M130.05,110.66c5.83-.21,11.67-.3,17.5-.38s11.67-.08,17.51-.12,11.67,0,17.5.11l8.76.14c2.92.09,5.83.14,8.75.25-2.92.11-5.83.16-8.75.24l-8.76.14c-5.83.08-11.67.08-17.5.12s-11.67,0-17.51-.12S135.88,110.87,130.05,110.66Z"/><path class="cls-1" d="M130.05,121.36c5.83-.2,11.67-.3,17.5-.38s11.67-.07,17.51-.12,11.67,0,17.5.12l8.76.14c2.92.08,5.83.13,8.75.24-2.92.12-5.83.16-8.75.25l-8.76.14c-5.83.08-11.67.07-17.5.11s-11.67,0-17.51-.11S135.88,121.57,130.05,121.36Z"/><path class="cls-1" d="M55.86,104.5c.2,1,.35,1.91.5,2.87v17.19c-.17,1-.3,1.91-.5,2.87-.21-1-.34-1.91-.5-2.87V107.37C55.5,106.41,55.65,105.45,55.86,104.5Z"/><path class="cls-1" d="M15.13,104.5c.2,1,.35,1.91.5,2.87v17.19c-.17,1-.3,1.91-.5,2.87-.21-1-.34-1.91-.5-2.87V107.37C14.77,106.41,14.92,105.45,15.13,104.5Z"/><path class="cls-1" d="M145.37,104.5c.21,1,.36,1.91.51,2.87v17.19c-.17,1-.3,1.91-.5,2.87-.2-1-.33-1.91-.5-2.87V107.37C145,106.41,145.16,105.45,145.37,104.5Z"/><path class="cls-1" d="M185.69,104.5c.21,1,.36,1.91.5,2.87v17.19c-.17,1-.3,1.91-.5,2.87-.2-1-.33-1.91-.5-2.87V107.37C185.33,106.41,185.48,105.45,185.69,104.5Z"/><path class="cls-1" d="M52.11,74.92c6.74-4.62,14.73-7,22.72-8.41a166.22,166.22,0,0,1,24.31-1.93,171.24,171.24,0,0,1,24.37,1.24,106.07,106.07,0,0,1,12,2.24A58.85,58.85,0,0,1,147,72.15l0,.09c-7.51-3.09-15.55-4.52-23.57-5.48a211,211,0,0,0-24.24-1.31A162,162,0,0,0,74.92,67c-8,1.22-16,3.48-22.75,8Z"/><path class="cls-1" d="M130.05,127.43c-2.62-5.12-5.14-10.28-7.65-15.44s-4.93-10.38-7.4-15.56S110.17,86,107.81,80.77l-3.52-7.86c-1.14-2.63-2.31-5.26-3.43-7.91,1.32,2.56,2.58,5.14,3.87,7.7l3.78,7.75c2.5,5.17,4.93,10.37,7.4,15.56s4.83,10.41,7.19,15.65S127.8,122.14,130.05,127.43Z"/><path class="cls-1" d="M70.11,127.43c2.24-5.29,4.59-10.53,7-15.77s4.8-10.43,7.19-15.65,4.9-10.39,7.4-15.56l3.78-7.74C96.72,70.14,98,67.56,99.3,65c-1.11,2.65-2.29,5.27-3.43,7.91l-3.52,7.86C90,86,87.55,91.21,85.16,96.43s-4.9,10.39-7.41,15.56S72.73,122.32,70.11,127.43Z"/><path class="cls-1" d="M37.6,65.85c-1.23,3.05-9.36,9.94-13.26,10.79l.11,32H21.1c0-.21,1.29-31.93,1.29-31.93S8.2,67.61,8.41,63.31C8.66,58.33,25.69,0,25.69,0S39.43,61.3,37.6,65.85Z"/><path class="cls-1" d="M44,83.53c0,3-9.67,8.57-9.67,8.57l0,16.58H31.74c0-.18.61-16.58.61-16.58S22,86.59,22.14,83c.2-4.14,13.32-64.64,13.32-64.64S44,78.77,44,83.53Z"/><path class="cls-1" d="M184.6,81.36c-.92,3.15-14.69,4.25-14.69,4.25l.4,23.07h-2.54l.49-23s-15.19-1.28-15-5.58c.24-5,15.55-37.88,15.55-37.88S186.12,76.2,184.6,81.36Z"/><g id="QRIcRM.tif"><path class="cls-1" d="M180.84,83.6c-.06,0,0,.07,0,.11a6,6,0,0,0,.09,1,.08.08,0,0,0,0,.07,1,1,0,0,1,.46.55c.05.15.11.29.16.43a.76.76,0,0,0,.11.22,3.44,3.44,0,0,1,.42.69,1.43,1.43,0,0,1,.11.91,1.3,1.3,0,0,1-1.18,1,2.18,2.18,0,0,1-.72,0,.86.86,0,0,1-.39-.13,2.56,2.56,0,0,1-.52-.52,1.24,1.24,0,0,1,0-1.47,3.25,3.25,0,0,1,.23-.29,1.76,1.76,0,0,0,.31-.61,2,2,0,0,1,.15-.41.88.88,0,0,1,.43-.4c.14-.06.16-.07.14-.22a8.48,8.48,0,0,1-.06-.88,1.2,1.2,0,0,1,.05-.38s0-.07.06-.06.08,0,.08.07v.09C180.81,83.48,180.88,83.59,180.84,83.6Z"/></g><path class="cls-1" d="M68.89,185.55a1.9,1.9,0,0,0-.29-.64c-.15-.19-.25-.23-.62-.23h-.64c-.23,0-.26,0-.26.26v1.63h.83c.47,0,.52-.1.63-.61h.25v1.59h-.26c-.08-.5-.17-.62-.62-.62h-.83v1.2c0,.67,0,.71.72.76v.25H65.55v-.25c.58,0,.64-.1.64-.76v-2.78c0-.64-.07-.69-.64-.74v-.25H68c.64,0,1,0,1.09,0,0,.18,0,.77.08,1.17Z"/><path class="cls-1" d="M73.68,187.92c0,.19-.24,1-.31,1.22H69.64v-.25c.67-.06.72-.1.72-.72v-2.84c0-.63-.09-.68-.6-.72v-.25H72.1c.74,0,1,0,1.11,0,0,.15,0,.74.07,1.17l-.27,0a1.81,1.81,0,0,0-.28-.64c-.13-.18-.25-.23-.65-.23h-.55c-.26,0-.29,0-.29.26v1.56H72c.46,0,.52-.11.62-.62h.27v1.59h-.27c-.11-.53-.17-.62-.63-.62h-.75v1.34c0,.51.07.62.5.63h.57c.43,0,.53-.06.69-.25a3.05,3.05,0,0,0,.43-.72Z"/><path class="cls-1" d="M78.67,189.19h-.24c-.79,0-1.07-.22-1.32-.58s-.52-.85-.77-1.27c-.12-.21-.22-.25-.51-.25h-.18v1.1c0,.61.08.66.64.72v.25H74.14v-.25c.58-.06.64-.11.64-.72v-2.85c0-.6-.08-.66-.64-.71v-.25h2a2.16,2.16,0,0,1,1.28.27,1.1,1.1,0,0,1,.5,1,1.3,1.3,0,0,1-.93,1.22c.11.22.41.71.63,1a6.08,6.08,0,0,0,.57.77,1,1,0,0,0,.49.32Zm-2.77-2.4a1.14,1.14,0,0,0,.75-.2,1,1,0,0,0,.37-.88.92.92,0,0,0-.94-1.06.62.62,0,0,0-.36.07c0,.05-.07.13-.07.29v1.78Z"/><path class="cls-1" d="M83,189.14v-.25c.57-.06.6-.11.6-.81v-2.92c-.55,1.3-1.27,2.94-1.71,4h-.22c-.4-1-1-2.61-1.57-3.91-.11,2.4-.11,2.9-.11,3.12,0,.4.17.49.7.54v.25H78.92v-.25c.42,0,.61-.12.66-.55,0-.26.06-.62.24-3.14,0-.36,0-.53-.68-.59v-.25h1.48l1.5,3.41,1.53-3.41h1.46v.25c-.6.06-.67.12-.66.69l0,2.78c0,.7,0,.73.66.81v.25Z"/><path class="cls-1" d="M89.7,187.92c0,.19-.24,1-.31,1.22H85.66v-.25c.67-.06.72-.1.72-.72v-2.84c0-.63-.09-.68-.61-.72v-.25h2.35c.74,0,1,0,1.11,0,0,.15,0,.74.07,1.17l-.27,0a1.81,1.81,0,0,0-.28-.64c-.13-.18-.25-.23-.65-.23h-.55c-.26,0-.29,0-.29.26v1.56H88c.46,0,.52-.11.62-.62h.27v1.59h-.27c-.11-.53-.17-.62-.63-.62h-.75v1.34c0,.51.07.62.49.63h.58c.43,0,.52-.06.69-.25a3.92,3.92,0,0,0,.43-.72Z"/><path class="cls-1" d="M94,184.36a2.91,2.91,0,0,1,2.11.64,2.1,2.1,0,0,1,.65,1.59,2.32,2.32,0,0,1-.92,1.94,3.36,3.36,0,0,1-2.11.61H91.81v-.25c.59,0,.64-.11.64-.72v-2.84c0-.62-.08-.67-.64-.72v-.25Zm-.66,3.76c0,.53.17.7.71.7,1.11,0,1.72-.77,1.72-2.12a2.06,2.06,0,0,0-.65-1.68,1.75,1.75,0,0,0-1.21-.37.78.78,0,0,0-.49.11c-.06.06-.08.16-.08.4Z"/><path class="cls-1" d="M102.48,184.61c-.47,0-.61.17-.64.46s0,.47,0,1V187a2.41,2.41,0,0,1-.52,1.73,1.85,1.85,0,0,1-1.37.5,2.08,2.08,0,0,1-1.28-.37,1.84,1.84,0,0,1-.64-1.63v-1.87c0-.67-.06-.72-.63-.77v-.25h2.15v.25c-.56,0-.62.1-.62.77v1.91c0,.92.44,1.47,1.26,1.47s1.3-.64,1.3-1.79v-.86c0-.56,0-.83,0-1.05s-.22-.42-.75-.45v-.25h1.81Z"/><g id="QRIcRM.tif-2" data-name="QRIcRM.tif"><path class="cls-1" d="M111.68,183a6.62,6.62,0,0,0,.12,1.34.11.11,0,0,0,.07.1,1.27,1.27,0,0,1,.61.72c.07.19.14.38.22.56a1.14,1.14,0,0,0,.15.29,5.13,5.13,0,0,1,.56.89,1.82,1.82,0,0,1,.14,1.19,1.74,1.74,0,0,1-1.57,1.34,3.16,3.16,0,0,1-1,0,1.14,1.14,0,0,1-.52-.17,3.18,3.18,0,0,1-.69-.68,1.55,1.55,0,0,1-.3-1,1.65,1.65,0,0,1,.34-.93c.11-.13.2-.26.31-.38a2.09,2.09,0,0,0,.42-.79,3.39,3.39,0,0,1,.2-.53,1.15,1.15,0,0,1,.58-.53c.19-.08.2-.09.18-.28,0-.38-.07-.76-.08-1.15C111.45,182.77,111.68,182.92,111.68,183Z"/></g><path class="cls-1" d="M106.52,184.35a2.24,2.24,0,0,1,1.29.31,1.22,1.22,0,0,1,.54,1.08,1.55,1.55,0,0,1-1.66,1.52l-.21,0-.46-.11v1.05c0,.61,0,.64.7.7v.25h-2.23v-.25c.58-.06.64-.09.64-.71v-2.85c0-.63-.07-.67-.64-.72v-.25Zm-.5,2.48a1,1,0,0,0,.44.09c.39,0,1-.22,1-1.18a1,1,0,0,0-1-1.1.57.57,0,0,0-.33.07.37.37,0,0,0-.07.27Z"/><path class="cls-1" d="M114.74,189.13v-.25c.57,0,.64-.09.64-.71v-2.85c0-.62-.07-.67-.64-.72v-.25h2.17v.25c-.58.06-.64.1-.64.72v2.85c0,.61.06.65.64.71v.25Z"/><path class="cls-1" d="M122.1,189.18h-.24c-.79,0-1.07-.22-1.32-.58s-.52-.85-.77-1.26c-.12-.22-.22-.26-.5-.26h-.19v1.11c0,.6.08.65.64.71v.25h-2.15v-.25c.58-.06.64-.11.64-.71v-2.86c0-.6-.08-.66-.64-.71v-.25h2a2.16,2.16,0,0,1,1.28.27,1.11,1.11,0,0,1,.49,1,1.28,1.28,0,0,1-.93,1.21c.12.23.42.71.64,1.05a6.6,6.6,0,0,0,.57.76,1,1,0,0,0,.49.33Zm-2.77-2.4a1.08,1.08,0,0,0,.75-.2,1,1,0,0,0,.37-.87c0-.79-.47-1.07-.94-1.07a.53.53,0,0,0-.36.08c-.05,0-.07.13-.07.29v1.77Z"/><path class="cls-1" d="M122.4,189.13v-.25c.58,0,.64-.09.64-.71v-2.85c0-.62-.07-.67-.64-.72v-.25h2.17v.25c-.57.06-.64.1-.64.72v2.85c0,.61.06.65.64.71v.25Z"/><path class="cls-1" d="M129.19,187.91c0,.2-.24,1-.31,1.22h-3.73v-.24c.68-.06.72-.11.72-.72v-2.85c0-.63-.08-.67-.6-.72v-.25h3.45c0,.15,0,.73.07,1.17l-.26,0a2,2,0,0,0-.29-.64c-.12-.18-.25-.23-.64-.23H127c-.26,0-.29,0-.29.26v1.57h.76c.46,0,.52-.11.62-.63h.27v1.6h-.27c-.11-.54-.17-.62-.63-.62h-.75v1.33c0,.51.07.63.5.63h.57c.43,0,.53-.05.69-.25a3,3,0,0,0,.43-.71Z"/><path class="cls-1" d="M134.19,189.18H134c-.8,0-1.07-.22-1.33-.58a13.59,13.59,0,0,1-.76-1.26c-.13-.22-.23-.26-.51-.26h-.19v1.11c0,.6.08.65.64.71v.25h-2.15v-.25c.58-.06.64-.11.64-.71v-2.86c0-.6-.07-.66-.64-.71v-.25h2a2.14,2.14,0,0,1,1.27.27,1.12,1.12,0,0,1,.5,1,1.29,1.29,0,0,1-.93,1.21c.12.23.41.71.63,1.05a8,8,0,0,0,.57.76,1,1,0,0,0,.49.33Zm-2.77-2.4a1.08,1.08,0,0,0,.75-.2,1,1,0,0,0,.36-.87c0-.79-.47-1.07-.94-1.07-.2,0-.31,0-.35.08s-.08.13-.08.29v1.77Z"/><line class="cls-2" x1="70.2" y1="58.6" x2="70.2" y2="67.81"/><polygon class="cls-1" points="129.55 67.13 130.05 58.75 130.55 67.13 129.55 67.13"/><path class="cls-1" d="M112.45,65.57l.14-2.12.07-1.06a1.66,1.66,0,0,0-.09-.93,1.7,1.7,0,0,0-1.62-.81,2,2,0,0,0-1,.24,1.89,1.89,0,0,0-.69.76,2,2,0,0,1,.63-.86,2.1,2.1,0,0,1,1-.37,2,2,0,0,1,2,.83,2.42,2.42,0,0,1,.26,1.14l.07,1.06.14,2.12Z"/><path class="cls-1" d="M125.75,66.37l.13-2.33.06-1.16a5.89,5.89,0,0,0,0-1.1,1.52,1.52,0,0,0-1.54-1.13,2.11,2.11,0,0,0-1.08.21,1.81,1.81,0,0,0-.76.83,2,2,0,0,1,.69-.94,2.47,2.47,0,0,1,2.36-.1,1.66,1.66,0,0,1,.82,1,6.88,6.88,0,0,1,.12,1.22l.06,1.16.12,2.33Z"/><path class="cls-1" d="M101.36,65.2l.14-2,.07-1a1.17,1.17,0,0,0-.15-.83,1.85,1.85,0,0,0-1.63-.68,2,2,0,0,0-.93.24,2,2,0,0,0-.68.72,2,2,0,0,1,.62-.81,2.11,2.11,0,0,1,1-.38,2.19,2.19,0,0,1,2,.66,1.75,1.75,0,0,1,.36,1.08l.07,1,.15,2Z"/><path class="cls-1" d="M88.82,65.5,89,63.39l.07-1a1.4,1.4,0,0,0-.1-.9,1.73,1.73,0,0,0-1.62-.79,2,2,0,0,0-1,.24,1.92,1.92,0,0,0-.69.75,2.11,2.11,0,0,1,.63-.85,2.17,2.17,0,0,1,1-.37,2.06,2.06,0,0,1,2,.79,2.1,2.1,0,0,1,.28,1.13l.07,1,.14,2.11Z"/><path class="cls-1" d="M77,66.5l.13-2.36L77.23,63a6.11,6.11,0,0,0,0-1.12,1.53,1.53,0,0,0-1.54-1.19,2.09,2.09,0,0,0-1.09.23,2.2,2.2,0,0,0-.75.87,2.15,2.15,0,0,1,.69-1,2.31,2.31,0,0,1,2.38-.1,1.78,1.78,0,0,1,.8,1A7.1,7.1,0,0,1,77.86,63l.06,1.18L78,66.5Z"/><path class="cls-1" d="M127.89,58.65l-31.21.26L81.08,59c-5.2,0-10.4.1-15.6.09h-.74l.26-.69c1.57-4.33,3.22-8.63,4.84-12.94l.1-.26h.26l6.44.13,6.44.2v.1l-6.44.2L70.2,46l.36-.26c-1.52,4.35-3,8.7-4.6,13l-.48-.69c5.2,0,10.4.06,15.6.1l15.6.11,31.21.26Z"/><path class="cls-1" d="M90.22,45.56l19.19-.26,9.59-.11c3.19,0,6.39-.11,9.59-.09h.32l.14.29c.95,1.94,1.82,3.93,2.74,5.89s1.75,4,2.56,6l-.09,0c-1.1-1.87-2.13-3.78-3.16-5.69s-2-3.84-3-5.78l.46.28c-3.2,0-6.4,0-9.59-.08l-9.59-.11-19.19-.27Z"/><polygon class="cls-1" points="88.75 58.6 88.93 50.38 89.25 50.69 82.87 50.55 83.05 50.38 82.87 57.46 82.69 50.38 82.69 50.2 82.87 50.2 89.25 50.06 89.56 50.05 89.57 50.38 89.75 58.6 88.75 58.6"/><path class="cls-1" d="M80.42,50.54q2.74-2.17,5.54-4.28l.21-.16.25.16c1,.63,2,1.19,2.92,1.91A20.18,20.18,0,0,1,92,50.54l-.06.08A20.07,20.07,0,0,1,88.78,49,33.45,33.45,0,0,1,86,46.92h.46c-2,1.25-4,2.49-5.94,3.7Z"/><polygon class="cls-1" points="116.16 58.6 116.34 50.38 116.66 50.7 110.05 50.55 110.23 50.38 110.05 57.46 109.88 50.38 109.87 50.2 110.05 50.2 116.66 50.05 116.97 50.05 116.98 50.38 117.16 58.6 116.16 58.6"/><path class="cls-1" d="M107.59,50.54c1.83-1.45,3.67-2.88,5.54-4.28l.21-.16.25.16c1,.63,2,1.19,2.92,1.91a20.1,20.1,0,0,1,2.61,2.37l-.05.08A20.63,20.63,0,0,1,115.94,49a33.3,33.3,0,0,1-2.81-2.07h.46c-2,1.25-4,2.49-6,3.7Z"/><polygon class="cls-1" points="121.12 45.61 121.37 41.48 121.5 41.61 118.92 41.48 121.5 41.36 121.61 41.35 121.62 41.48 121.87 45.61 121.12 45.61"/></g></g></svg>