<svg xmlns="http://www.w3.org/2000/svg" viewBox="0 0 200.06 46.28"><g id="Calque_2" data-name="Calque 2"><g id="Calque_1-2" data-name="Calque 1"><path d="M0,29.52c5.84-.21,11.68-.31,17.53-.39s11.68-.07,17.52-.11,11.69,0,17.53.11l8.76.14c2.92.08,5.84.13,8.76.25-2.92.11-5.84.16-8.76.24l-8.76.14C46.74,30,40.89,30,35.05,30s-11.68,0-17.52-.11S5.84,29.72,0,29.52Z"/><path d="M.08,40.22c5.84-.21,11.67-.3,17.51-.38s11.67-.08,17.5-.12,11.67,0,17.51.11l8.75.14c2.92.09,5.84.13,8.75.25-2.91.11-5.83.16-8.75.24l-8.75.14c-5.84.08-11.67.08-17.51.12s-11.67,0-17.5-.12S5.92,40.42.08,40.22Z"/><path d="M130,29.52c5.83-.21,11.67-.31,17.5-.39s11.67-.07,17.51-.11,11.67,0,17.5.11l8.76.14c2.91.08,5.83.13,8.75.25-2.92.11-5.84.16-8.75.24l-8.76.14c-5.83.08-11.67.08-17.5.11s-11.67,0-17.51-.11S135.87,29.72,130,29.52Z"/><path d="M130,40.22c5.83-.21,11.67-.3,17.5-.38s11.67-.08,17.51-.12,11.67,0,17.5.11l8.76.14c2.91.09,5.83.13,8.75.25-2.92.11-5.84.16-8.75.24l-8.76.14c-5.83.08-11.67.08-17.5.12s-11.67,0-17.51-.12S135.87,40.42,130,40.22Z"/><path d="M55.85,23.36c.21.95.36,1.91.51,2.86v17.2c-.17.95-.29,1.91-.5,2.86-.2-1-.33-1.91-.5-2.86V26.22C55.5,25.27,55.65,24.31,55.85,23.36Z"/><path d="M15.12,23.36c.21.95.36,1.91.51,2.86v17.2c-.16.95-.29,1.91-.5,2.86-.2-1-.33-1.91-.5-2.86V26.22C14.77,25.27,14.92,24.31,15.12,23.36Z"/><path d="M145.36,23.36c.21.95.36,1.91.51,2.86v17.2c-.16.95-.29,1.91-.5,2.86-.2-1-.33-1.91-.5-2.86V26.22C145,25.27,145.16,24.31,145.36,23.36Z"/><path d="M185.68,23.36c.21.95.36,1.91.5,2.86v17.2c-.17.95-.3,1.91-.5,2.86-.2-1-.33-1.91-.5-2.86V26.22C185.32,25.27,185.47,24.31,185.68,23.36Z"/><g id="QRIcRM.tif"><path d="M129.72.25a20.72,20.72,0,0,0,.3,3.33.31.31,0,0,0,.18.25,3.09,3.09,0,0,1,1.52,1.77c.18.47.35.94.54,1.4a2.64,2.64,0,0,0,.36.71A11.61,11.61,0,0,1,134,9.92a4.58,4.58,0,0,1,.36,2.95,4.33,4.33,0,0,1-3.9,3.33,8.54,8.54,0,0,1-2.42-.05,2.85,2.85,0,0,1-1.29-.42,8.21,8.21,0,0,1-1.7-1.68,4,4,0,0,1-.74-2.47,4,4,0,0,1,.85-2.31c.25-.31.49-.63.77-.93a5.53,5.53,0,0,0,1-2,7.45,7.45,0,0,1,.52-1.31,2.79,2.79,0,0,1,1.43-1.32c.46-.2.5-.22.45-.7a27.1,27.1,0,0,1-.2-2.84C129.16-.22,129.73.13,129.72.25Z"/></g><path d="M23.4,6.75a4.7,4.7,0,0,0-.72-1.59c-.36-.47-.61-.57-1.54-.57H19.57c-.59,0-.66,0-.66.63V9.28H21c1.16,0,1.29-.26,1.56-1.53h.63v4h-.65c-.21-1.25-.43-1.55-1.54-1.55H18.91v3c0,1.65.14,1.75,1.78,1.88v.61H15.12V15c1.42-.12,1.59-.24,1.59-1.88V6.26c0-1.61-.17-1.73-1.59-1.86V3.79h6.05c1.59,0,2.4,0,2.7,0,0,.43.1,1.9.2,2.9Z"/><path d="M35.29,12.61c-.09.49-.6,2.51-.77,3H25.27V15c1.67-.15,1.78-.27,1.78-1.79v-7c0-1.58-.21-1.68-1.49-1.8V3.79h5.8c1.85,0,2.51,0,2.75,0,0,.37.11,1.82.18,2.9l-.65.09a4.8,4.8,0,0,0-.71-1.59c-.31-.45-.61-.56-1.6-.56H30c-.64,0-.71,0-.71.63V9.11h1.88c1.14,0,1.29-.28,1.54-1.55h.66v4h-.66C32.39,10.18,32.24,10,31.1,10H29.24v3.32c0,1.26.17,1.55,1.22,1.57H31.9c1.05,0,1.29-.15,1.7-.63a8.47,8.47,0,0,0,1.06-1.77Z"/><path d="M47.68,15.77l-.59,0c-2-.1-2.66-.54-3.3-1.44s-1.28-2.1-1.89-3.14c-.3-.52-.55-.63-1.26-.63h-.46v2.73c0,1.5.19,1.62,1.59,1.78v.61H36.44V15c1.43-.16,1.58-.28,1.58-1.78V6.16c0-1.48-.19-1.63-1.58-1.76V3.79H41.5a5.34,5.34,0,0,1,3.17.67A2.74,2.74,0,0,1,45.9,6.88a3.2,3.2,0,0,1-2.31,3c.3.56,1,1.76,1.58,2.59a15.32,15.32,0,0,0,1.41,1.89,2.32,2.32,0,0,0,1.21.81Zm-6.87-6a2.76,2.76,0,0,0,1.86-.49,2.58,2.58,0,0,0,.91-2.17c0-1.94-1.18-2.64-2.33-2.64-.51,0-.77.07-.88.18s-.19.32-.19.73V9.81Z"/><path d="M58.47,15.64V15c1.42-.15,1.5-.27,1.5-2V5.78C58.58,9,56.8,13.07,55.73,15.64h-.56c-1-2.51-2.55-6.47-3.89-9.7-.26,6-.27,7.2-.27,7.74,0,1,.41,1.22,1.74,1.35v.61H48.29V15c1.05-.1,1.51-.31,1.66-1.36.08-.64.14-1.55.58-7.79.06-.9-.09-1.33-1.67-1.48V3.79h3.67l3.7,8.46L60,3.79h3.62V4.4C62.17,4.56,62,4.72,62,6.11l.12,6.9c0,1.75.11,1.83,1.63,2v.61Z"/><path d="M75.05,12.61c-.09.49-.6,2.51-.77,3H65V15c1.67-.15,1.78-.27,1.78-1.79v-7c0-1.58-.21-1.68-1.49-1.8V3.79h5.8c1.85,0,2.51,0,2.75,0,0,.37.11,1.82.18,2.9l-.65.09a4.8,4.8,0,0,0-.71-1.59c-.31-.45-.61-.56-1.6-.56H69.71c-.64,0-.71,0-.71.63V9.11h1.88c1.14,0,1.29-.28,1.54-1.55h.66v4h-.66C72.15,10.18,72,10,70.86,10H69v3.32c0,1.26.17,1.55,1.22,1.57h1.44c1,0,1.29-.15,1.7-.63a8.47,8.47,0,0,0,1.06-1.77Z"/><path d="M85.86,3.7c2.42,0,4.1.5,5.26,1.58a5.21,5.21,0,0,1,1.61,4,5.81,5.81,0,0,1-2.28,4.82,8.46,8.46,0,0,1-5.25,1.5H80.45v-.61c1.45-.13,1.58-.28,1.58-1.79v-7c0-1.54-.21-1.66-1.58-1.79V3.7ZM84.23,13c0,1.32.42,1.74,1.77,1.74,2.75,0,4.26-1.9,4.26-5.26a5.14,5.14,0,0,0-1.6-4.15,4.36,4.36,0,0,0-3-.92,1.87,1.87,0,0,0-1.21.26c-.17.14-.22.41-.22,1Z"/><path d="M106.91,4.31c-1.16.1-1.51.43-1.57,1.15,0,.5-.08,1.17-.08,2.59v2.24a6,6,0,0,1-1.29,4.3,4.6,4.6,0,0,1-3.4,1.23,5.08,5.08,0,0,1-3.17-.91c-1.07-.82-1.59-2-1.59-4.05V6.23c0-1.67-.16-1.79-1.57-1.92V3.7h5.34v.61c-1.4.12-1.55.25-1.55,1.92V11c0,2.26,1.09,3.65,3.12,3.65,2.32,0,3.22-1.61,3.22-4.45V8.05c0-1.41-.05-2.07-.09-2.6-.06-.84-.54-1.06-1.85-1.14V3.7h4.48Z"/><path d="M116.92,3.7a5.66,5.66,0,0,1,3.21.76,3,3,0,0,1,1.35,2.68c0,2.65-2.26,3.75-4.13,3.77a3.71,3.71,0,0,1-.53,0l-1.13-.29v2.6c0,1.54.13,1.6,1.75,1.76v.61H111.9v-.61c1.44-.17,1.59-.24,1.59-1.77V6.11c0-1.57-.19-1.69-1.59-1.8V3.7Zm-1.23,6.16a2.87,2.87,0,0,0,1.1.2c1,0,2.39-.54,2.39-2.91,0-2-1.19-2.75-2.49-2.75a1.31,1.31,0,0,0-.82.19c-.14.12-.18.32-.18.67Z"/><path d="M137.32,15.55v-.61c1.43-.14,1.59-.24,1.59-1.78v-7c0-1.55-.17-1.67-1.59-1.8V3.7h5.38v.61c-1.42.14-1.59.25-1.59,1.8v7.05c0,1.53.16,1.62,1.59,1.78v.61Z"/><path d="M155.59,15.68l-.59,0c-2-.1-2.66-.54-3.3-1.44s-1.28-2.1-1.89-3.14c-.3-.52-.55-.63-1.26-.63h-.46v2.73c0,1.5.19,1.62,1.59,1.78v.61h-5.33v-.61c1.43-.16,1.58-.28,1.58-1.78V6.07c0-1.48-.19-1.63-1.58-1.76V3.7h5.06a5.45,5.45,0,0,1,3.17.66,2.77,2.77,0,0,1,1.23,2.42,3.2,3.2,0,0,1-2.31,3c.3.56,1,1.75,1.58,2.59a14.34,14.34,0,0,0,1.41,1.89,2.32,2.32,0,0,0,1.21.81Zm-6.87-6a2.76,2.76,0,0,0,1.86-.49,2.58,2.58,0,0,0,.91-2.17c0-1.94-1.18-2.64-2.33-2.64a1.39,1.39,0,0,0-.89.18c-.14.12-.18.32-.18.73V9.72Z"/><path d="M156.33,15.55v-.61c1.43-.14,1.59-.24,1.59-1.78v-7c0-1.55-.17-1.67-1.59-1.8V3.7h5.38v.61c-1.42.14-1.59.25-1.59,1.8v7.05c0,1.53.16,1.62,1.59,1.78v.61Z"/><path d="M173.18,12.52c-.1.49-.6,2.51-.77,3h-9.26V15c1.68-.15,1.79-.27,1.79-1.79v-7c0-1.58-.21-1.68-1.49-1.8V3.7h5.8c1.85,0,2.51,0,2.75,0,0,.37.11,1.82.18,2.9l-.65.09a4.8,4.8,0,0,0-.71-1.59c-.31-.45-.61-.56-1.6-.56h-1.38c-.65,0-.71,0-.71.63V9H169c1.15,0,1.3-.28,1.55-1.55h.66v4h-.66c-.27-1.34-.42-1.55-1.56-1.55h-1.86v3.31c0,1.27.17,1.56,1.22,1.57h1.44c1.05,0,1.29-.14,1.69-.62a8.1,8.1,0,0,0,1.07-1.77Z"/><path d="M185.57,15.68l-.59,0c-2-.1-2.66-.54-3.3-1.44s-1.28-2.1-1.89-3.14c-.3-.52-.55-.63-1.26-.63h-.46v2.73c0,1.5.19,1.62,1.59,1.78v.61h-5.33v-.61c1.43-.16,1.58-.28,1.58-1.78V6.07c0-1.48-.19-1.63-1.58-1.76V3.7h5.06a5.45,5.45,0,0,1,3.17.66,2.77,2.77,0,0,1,1.23,2.42,3.2,3.2,0,0,1-2.31,3c.3.56,1,1.75,1.58,2.59a14.34,14.34,0,0,0,1.41,1.89,2.32,2.32,0,0,0,1.21.81Zm-6.87-6a2.76,2.76,0,0,0,1.86-.49,2.58,2.58,0,0,0,.91-2.17c0-1.94-1.18-2.64-2.33-2.64a1.39,1.39,0,0,0-.89.18c-.14.12-.18.32-.18.73V9.72Z"/><path d="M66.53,34.19a1.69,1.69,0,0,0-.12-.27c-.07-.12-.12-.15-.33-.15h-.39c-.11,0-.12,0-.12.11v.85H66c.26,0,.28,0,.33-.3h.11v.77h-.11c0-.26-.07-.32-.33-.32h-.46v.66c0,.32,0,.33.37.36V36h-1v-.1c.3,0,.33,0,.33-.36V34.09c0-.32,0-.34-.33-.37v-.1H66.6c0,.14,0,.39,0,.57Z"/><path d="M68.85,35.42c0,.1-.12.47-.15.58H66.91v-.1c.35,0,.37-.06.37-.36V34.09c0-.32,0-.34-.31-.37v-.1h1.65c0,.1,0,.37,0,.56l-.11,0a1.26,1.26,0,0,0-.11-.28c-.06-.12-.14-.14-.36-.14h-.35c-.11,0-.12,0-.12.11v.81H68c.27,0,.29,0,.33-.3h.12v.76h-.12c0-.27-.07-.3-.34-.3h-.4v.72c0,.26.08.28.26.29h.34c.23,0,.26,0,.35-.13a1.58,1.58,0,0,0,.19-.34Z"/><path d="M71,35.42c0,.1-.12.47-.15.58H69.07v-.1c.35,0,.37-.06.37-.36V34.09c0-.32,0-.34-.31-.37v-.1h1.65c0,.1,0,.37,0,.56l-.11,0a1.26,1.26,0,0,0-.11-.28c-.06-.12-.14-.14-.36-.14h-.35c-.11,0-.12,0-.12.11v.81h.41c.27,0,.29,0,.33-.3h.12v.76H70.5c0-.27-.07-.3-.34-.3h-.4v.72c0,.26.08.28.26.29h.34c.23,0,.26,0,.34-.13a1.6,1.6,0,0,0,.2-.34Z"/><path d="M73.11,35.39a6.09,6.09,0,0,1-.17.61h-1.7v-.1c.33,0,.36,0,.36-.36V34.08c0-.31,0-.33-.33-.36v-.1h1v.1c-.29,0-.33.05-.33.36v1.49c0,.23,0,.28.24.28h.29a.34.34,0,0,0,.32-.12,1.37,1.37,0,0,0,.23-.37Z"/><path d="M76.74,33.72c-.24,0-.31.07-.32.23s0,.28,0,.62V36h-.14L74.7,34.12V35c0,.33,0,.49,0,.6s.1.24.36.26V36h-.89v-.1c.23,0,.31-.07.33-.25s0-.28,0-.62V34.1a.31.31,0,0,0-.08-.24c-.07-.1-.14-.12-.32-.14v-.1h.55l1.55,1.84v-.89c0-.34,0-.5,0-.61s-.09-.22-.39-.24v-.1h.91Z"/><path d="M78.29,36v-.1c.23,0,.26-.07.21-.2s-.12-.33-.19-.56h-.8c-.06.16-.11.31-.16.46s0,.26.27.3V36h-.85v-.1c.23,0,.29,0,.42-.38L78,33.59l.12,0,.71,2c.12.32.15.35.41.38V36Zm-.37-2c-.12.31-.24.65-.35.94h.68Z"/><path d="M81,34.2a1.37,1.37,0,0,0-.11-.31c-.06-.1-.1-.12-.3-.12h-.37v1.78c0,.29,0,.33.38.35V36H79.5v-.1c.35,0,.37-.06.37-.35V33.77h-.33c-.2,0-.26,0-.32.13a1.31,1.31,0,0,0-.12.3H79c0-.23,0-.46.05-.66h.09c.05.08.09.08.19.08h1.46c.1,0,.13,0,.18-.08h.09c0,.17,0,.43,0,.65Z"/><path d="M83.9,33.72c-.23,0-.31.08-.32.25s0,.23,0,.57v.4a1.15,1.15,0,0,1-.26.88.89.89,0,0,1-.67.23,1,1,0,0,1-.6-.16,1,1,0,0,1-.33-.85V34.1c0-.33,0-.35-.32-.38v-.1h1v.1c-.29,0-.32.05-.32.38V35c0,.53.25.83.69.83s.69-.33.69-.94v-.37a5.16,5.16,0,0,0,0-.57c0-.17-.1-.23-.37-.25v-.1h.88Z"/><path d="M86.28,36h-.13a.67.67,0,0,1-.58-.32c-.13-.19-.26-.42-.38-.6s-.12-.14-.31-.14h-.13v.57c0,.31,0,.33.34.36V36h-1v-.1c.3,0,.33,0,.33-.36V34.08c0-.31,0-.32-.33-.36v-.1H85a1,1,0,0,1,.59.13.54.54,0,0,1,.25.48.69.69,0,0,1-.47.63c.06.11.22.36.33.52a3.85,3.85,0,0,0,.29.38.48.48,0,0,0,.27.17Zm-1.35-1.19a.62.62,0,0,0,.4-.1.52.52,0,0,0,.2-.46.49.49,0,0,0-.54-.53c-.1,0-.17,0-.19,0s0,.06,0,.15v.9Z"/><path d="M88.33,35.42c0,.1-.12.47-.16.58H86.39v-.1c.34,0,.37-.06.37-.36V34.09c0-.32,0-.34-.32-.37v-.1h1.65c0,.1,0,.37,0,.56l-.11,0a2,2,0,0,0-.11-.28c-.06-.12-.15-.14-.37-.14H87.2c-.12,0-.13,0-.13.11v.81h.41c.28,0,.29,0,.34-.3h.11v.76h-.11c0-.27-.08-.3-.34-.3h-.41v.72c0,.26.09.28.27.29h.34c.22,0,.26,0,.34-.13a1.6,1.6,0,0,0,.2-.34Z"/><path d="M90.3,35.28h-.85l0-.22h.84Z"/><path d="M93.12,34.19a1.09,1.09,0,0,0-.11-.27c-.07-.12-.12-.15-.33-.15h-.39c-.11,0-.12,0-.12.11v.85h.46c.26,0,.28,0,.33-.3h.11v.77H93c0-.26-.07-.32-.33-.32h-.46v.66c0,.32,0,.33.37.36V36h-1v-.1c.3,0,.33,0,.33-.36V34.09c0-.32,0-.34-.33-.37v-.1H93.2c0,.14,0,.39,0,.57Z"/><path d="M95.45,35.42c0,.1-.12.47-.16.58H93.51v-.1c.34,0,.37-.06.37-.36V34.09c0-.32,0-.34-.32-.37v-.1h1.66c0,.1,0,.37,0,.56l-.11,0a1.26,1.26,0,0,0-.11-.28c-.06-.12-.14-.14-.36-.14h-.35c-.11,0-.12,0-.12.11v.81h.41c.27,0,.29,0,.33-.3h.12v.76h-.12c0-.27-.07-.3-.34-.3h-.4v.72c0,.26.08.28.26.29h.34c.23,0,.26,0,.34-.13a1.6,1.6,0,0,0,.2-.34Z"/><path d="M97.61,35.42c0,.1-.12.47-.16.58H95.67v-.1c.34,0,.37-.06.37-.36V34.09c0-.32,0-.34-.32-.37v-.1h1.66c0,.1,0,.37,0,.56l-.11,0a1.26,1.26,0,0,0-.11-.28c-.06-.12-.14-.14-.36-.14h-.35c-.11,0-.12,0-.12.11v.81h.4c.28,0,.3,0,.34-.3h.12v.76H97.1c0-.27-.08-.3-.34-.3h-.4v.72c0,.26.08.28.26.29H97c.23,0,.26,0,.34-.13a1.6,1.6,0,0,0,.2-.34Z"/><path d="M99.71,35.39a6.09,6.09,0,0,1-.17.61h-1.7v-.1c.33,0,.36,0,.36-.36V34.08c0-.31,0-.33-.33-.36v-.1h1v.1c-.29,0-.33.05-.33.36v1.49c0,.23,0,.28.24.28H99c.19,0,.25,0,.33-.12a1.14,1.14,0,0,0,.22-.37Z"/><path d="M103.36,33.72c-.31,0-.34.05-.34.36v1.47c0,.31,0,.32.34.35V36h-1v-.1c.31,0,.34,0,.34-.35v-.73h-1.26v.73c0,.3,0,.31.33.35V36h-1v-.1c.29,0,.32,0,.32-.35V34.08c0-.31,0-.33-.32-.36v-.1h1v.1c-.29,0-.33.06-.33.36v.58h1.26v-.58c0-.3,0-.33-.34-.36v-.1h1Z"/><path d="M104.94,33.57a1.18,1.18,0,0,1,1.19,1.21,1.21,1.21,0,1,1-2.42,0A1.22,1.22,0,0,1,104.94,33.57Zm-.07.14c-.41,0-.78.34-.78,1s.37,1.18.89,1.18.78-.33.78-1S105.35,33.71,104.87,33.71Z"/><path d="M108.52,36v-.1c.31,0,.32,0,.31-.44V34c-.3.67-.79,1.72-.92,2h-.09c-.13-.33-.54-1.34-.82-2-.06,1.28-.06,1.57-.06,1.64s.09.23.34.26V36h-.87v-.1c.21,0,.3-.07.33-.26s0-.3.12-1.63c0-.19,0-.26-.34-.29v-.1h.64l.81,1.86.86-1.86h.64v.1c-.31,0-.35.07-.34.33v1.41c0,.39,0,.41.35.44V36Z"/><path d="M111.73,35.42c0,.1-.12.47-.15.58h-1.79v-.1c.35,0,.37-.06.37-.36V34.09c0-.32,0-.34-.31-.37v-.1h1.65c0,.1,0,.37,0,.56l-.11,0a1.26,1.26,0,0,0-.11-.28c-.06-.12-.14-.14-.36-.14h-.35c-.11,0-.12,0-.12.11v.81h.41c.27,0,.29,0,.33-.3h.12v.76h-.12c0-.27-.07-.3-.34-.3h-.4v.72c0,.26.08.28.26.29h.34c.23,0,.26,0,.35-.13a2.17,2.17,0,0,0,.19-.34Z"/><path d="M113.7,35.28h-.84l0-.22h.84Z"/><path d="M116.53,34.19a.83.83,0,0,0-.12-.27c-.06-.12-.12-.15-.32-.15h-.4c-.1,0-.11,0-.11.11v.85H116c.26,0,.28,0,.34-.3h.11v.77h-.12c0-.26-.07-.32-.33-.32h-.45v.66c0,.32,0,.33.37.36V36h-1v-.1c.29,0,.33,0,.33-.36V34.09c0-.32,0-.34-.33-.37v-.1h1.68c0,.14,0,.39,0,.57Z"/><path d="M118.86,35.42c0,.1-.12.47-.16.58h-1.78v-.1c.34,0,.36-.06.36-.36V34.09c0-.32,0-.34-.31-.37v-.1h1.65c0,.1,0,.37,0,.56l-.11,0a.91.91,0,0,0-.11-.28c-.05-.12-.14-.14-.36-.14h-.35c-.11,0-.12,0-.12.11v.81H118c.27,0,.29,0,.34-.3h.11v.76h-.11c0-.27-.08-.3-.34-.3h-.41v.72c0,.26.08.28.27.29h.34c.22,0,.26,0,.34-.13a1.6,1.6,0,0,0,.2-.34Z"/><path d="M121,35.42l-.16.58h-1.78v-.1c.34,0,.36-.06.36-.36V34.09c0-.32,0-.34-.31-.37v-.1h1.65c0,.1,0,.37,0,.56l-.11,0a1.26,1.26,0,0,0-.11-.28c0-.12-.14-.14-.36-.14h-.35c-.11,0-.12,0-.12.11v.81h.41c.27,0,.29,0,.34-.3h.11v.76h-.11c-.05-.27-.08-.3-.34-.3h-.41v.72c0,.26.08.28.27.29h.34c.22,0,.26,0,.34-.13a2.18,2.18,0,0,0,.2-.34Z"/><path d="M123.11,35.39a6.09,6.09,0,0,1-.17.61h-1.7v-.1c.33,0,.36,0,.36-.36V34.08c0-.31,0-.33-.33-.36v-.1h1v.1c-.3,0-.34.05-.34.36v1.49c0,.23,0,.28.24.28h.29a.36.36,0,0,0,.33-.12,1.34,1.34,0,0,0,.22-.37Z"/><path d="M126.6,35c-.22,0-.24,0-.24.27v.31a1.89,1.89,0,0,0,0,.35,3.71,3.71,0,0,1-.83.13,1.22,1.22,0,0,1-1.34-1.26,1.26,1.26,0,0,1,1.37-1.23,3.64,3.64,0,0,1,.76.09c0,.14,0,.36,0,.59l-.11,0a.61.61,0,0,0-.42-.52,1.27,1.27,0,0,0-.34,0c-.56,0-.93.38-.93,1a1,1,0,0,0,1,1.16.71.71,0,0,0,.31-.06c.07,0,.12-.08.12-.23v-.3c0-.27,0-.3-.38-.33v-.1h.94Z"/><path d="M128.23,33.57a1.18,1.18,0,0,1,1.18,1.21,1.21,1.21,0,1,1-2.42,0A1.22,1.22,0,0,1,128.23,33.57Zm-.08.14c-.41,0-.78.34-.78,1s.37,1.18.89,1.18.78-.33.78-1S128.63,33.71,128.15,33.71Z"/><path d="M131.06,33.57a1.18,1.18,0,0,1,1.19,1.21,1.22,1.22,0,1,1-2.43,0A1.22,1.22,0,0,1,131.06,33.57Zm-.07.14c-.41,0-.79.34-.79,1s.38,1.18.9,1.18.77-.33.77-1S131.47,33.71,131,33.71Z"/><path d="M133.62,33.62a1.43,1.43,0,0,1,1.07.32,1.06,1.06,0,0,1,.32.78,1.21,1.21,0,0,1-.46,1,1.76,1.76,0,0,1-1.09.29h-.85v-.1c.31,0,.33,0,.33-.36V34.08c0-.31-.05-.33-.33-.36v-.1Zm-.37,1.9c0,.27.12.35.4.35a1,1,0,0,0,1-1.09.94.94,0,0,0-.42-.88,1.13,1.13,0,0,0-.63-.15.54.54,0,0,0-.29,0s-.05.06-.05.21Z"/></g></g></svg>