<svg xmlns="http://www.w3.org/2000/svg" viewBox="0 0 200.06 72.75"><g id="Calque_2" data-name="Calque 2"><g id="Calque_1-2" data-name="Calque 1"><path d="M0,56c5.84-.21,11.68-.31,17.53-.39s11.68-.07,17.52-.11,11.69,0,17.53.11l8.76.14c2.92.08,5.84.13,8.76.25-2.92.11-5.84.16-8.76.24l-8.76.14c-5.84.08-11.69.08-17.53.12s-11.68,0-17.52-.12S5.84,56.19,0,56Z"/><path d="M.08,66.69c5.84-.21,11.67-.3,17.51-.38s11.67-.08,17.5-.12,11.67,0,17.51.11l8.75.14c2.92.09,5.84.14,8.75.25-2.91.11-5.83.16-8.75.24l-8.75.14c-5.84.08-11.67.08-17.51.12s-11.67,0-17.5-.12S5.92,66.89.08,66.69Z"/><path d="M130,56c5.83-.21,11.67-.31,17.5-.39s11.67-.07,17.51-.11,11.67,0,17.5.11l8.76.14c2.91.08,5.83.13,8.75.25-2.92.11-5.84.16-8.75.24l-8.76.14c-5.83.08-11.67.08-17.5.12s-11.67,0-17.51-.12S135.87,56.19,130,56Z"/><path d="M130,66.69c5.83-.21,11.67-.3,17.5-.38s11.67-.08,17.51-.12,11.67,0,17.5.11l8.76.14c2.91.09,5.83.14,8.75.25-2.92.11-5.84.16-8.75.24l-8.76.14c-5.83.08-11.67.08-17.5.12s-11.67,0-17.51-.12S135.87,66.89,130,66.69Z"/><path d="M55.85,49.83c.21,1,.36,1.91.51,2.86v17.2c-.17,1-.29,1.91-.5,2.86-.2-1-.33-1.91-.5-2.86V52.69C55.5,51.74,55.65,50.78,55.85,49.83Z"/><path d="M15.12,49.83c.21,1,.36,1.91.51,2.86v17.2c-.16,1-.29,1.91-.5,2.86-.2-1-.33-1.91-.5-2.86V52.69C14.77,51.74,14.92,50.78,15.12,49.83Z"/><path d="M145.36,49.83c.21,1,.36,1.91.51,2.86v17.2c-.16,1-.29,1.91-.5,2.86-.2-1-.33-1.91-.5-2.86V52.69C145,51.74,145.16,50.78,145.36,49.83Z"/><path d="M185.68,49.83c.21,1,.36,1.91.5,2.86v17.2c-.17,1-.3,1.91-.5,2.86-.2-1-.33-1.91-.5-2.86V52.69C185.32,51.74,185.47,50.78,185.68,49.83Z"/><g id="QRIcRM.tif"><path d="M95.59,17.47a27.31,27.31,0,0,0,.4,4.42.41.41,0,0,0,.24.33,4.16,4.16,0,0,1,2,2.36c.24.62.47,1.24.72,1.86a3.43,3.43,0,0,0,.48.93,15.79,15.79,0,0,1,1.85,2.94,6.06,6.06,0,0,1,.48,3.92,5.74,5.74,0,0,1-5.18,4.42,11.15,11.15,0,0,1-3.21-.07A3.69,3.69,0,0,1,91.67,38a11.11,11.11,0,0,1-2.26-2.23,5.1,5.1,0,0,1-1-3.27,5.3,5.3,0,0,1,1.12-3.07c.33-.42.66-.84,1-1.24a7.14,7.14,0,0,0,1.36-2.62,10.82,10.82,0,0,1,.68-1.74,3.79,3.79,0,0,1,1.91-1.75c.61-.26.66-.29.59-.93-.13-1.25-.25-2.51-.26-3.76C94.85,16.84,95.6,17.31,95.59,17.47Z"/></g><path d="M71,4a6.74,6.74,0,0,0-1-2.1c-.49-.64-.83-.77-2.06-.77H65.88c-.78,0-.87.06-.87.84V7.34h2.74c1.54,0,1.71-.34,2.07-2h.84v5.26H69.8c-.29-1.66-.58-2.06-2-2.06H65v4c0,2.19.18,2.33,2.37,2.49v.82H60V15c1.88-.16,2.1-.31,2.1-2.49V3.33c0-2.14-.23-2.3-2.1-2.46V.05h8c2.12,0,3.2,0,3.59,0,0,.57.14,2.52.26,3.86Z"/><path d="M86.77,11.77c-.13.64-.8,3.33-1,4H73.45V15c2.22-.2,2.38-.36,2.38-2.37V3.25c0-2.09-.28-2.23-2-2.38V.05h7.71c2.45,0,3.33,0,3.65,0,0,.5.14,2.42.24,3.85L84.57,4a6.39,6.39,0,0,0-.93-2.11c-.42-.59-.82-.75-2.13-.75H79.68c-.86,0-.94.06-.94.84V7.11h2.48c1.52,0,1.72-.36,2.06-2.05h.87v5.25h-.87c-.36-1.77-.56-2-2.08-2H78.74v4.39c0,1.68.22,2.06,1.62,2.09h1.9c1.4,0,1.72-.19,2.26-.84a10.62,10.62,0,0,0,1.41-2.35Z"/><path d="M103.22,16c-.2,0-.48,0-.78,0-2.62-.13-3.54-.72-4.38-1.91a46.54,46.54,0,0,1-2.51-4.17c-.41-.69-.74-.84-1.68-.84h-.61v3.63c0,2,.25,2.14,2.11,2.35v.82H88.29V15c1.9-.2,2.1-.36,2.1-2.35V3.2c0-2-.25-2.16-2.1-2.33V.05H95c2,0,3.24.23,4.2.89a3.66,3.66,0,0,1,1.64,3.21c0,2.13-1.4,3.33-3.07,4,.39.73,1.37,2.32,2.1,3.43a19,19,0,0,0,1.87,2.51,3,3,0,0,0,1.61,1.08ZM94.09,8.05a3.73,3.73,0,0,0,2.48-.65,3.44,3.44,0,0,0,1.21-2.89c0-2.57-1.57-3.5-3.1-3.5-.67,0-1,.09-1.17.24s-.25.43-.25,1V8.05Z"/><path d="M117.55,15.79V15c1.89-.19,2-.35,2-2.68V2.69c-1.83,4.27-4.2,9.68-5.63,13.1h-.74c-1.31-3.33-3.38-8.59-5.16-12.88-.35,7.91-.36,9.55-.36,10.28,0,1.33.55,1.62,2.31,1.78v.82H104V15c1.39-.13,2-.4,2.2-1.8.11-.85.19-2.05.77-10.34.08-1.2-.11-1.77-2.22-2V.05h4.88l4.91,11.24L119.64.05h4.8V.87c-2,.21-2.22.41-2.17,2.26l.16,9.16c0,2.33.14,2.43,2.16,2.68v.82Z"/><path d="M139.57,11.77c-.13.64-.8,3.33-1,4h-12.3V15c2.23-.2,2.38-.36,2.38-2.37V3.25c0-2.09-.28-2.23-2-2.38V.05h7.71c2.45,0,3.33,0,3.66,0,0,.5.13,2.42.23,3.85l-.87.12a6.39,6.39,0,0,0-.93-2.11c-.42-.59-.82-.75-2.13-.75h-1.83c-.86,0-.94.06-.94.84V7.11H134c1.52,0,1.72-.36,2.06-2.05H137v5.25h-.88c-.36-1.77-.56-2-2.08-2h-2.46v4.39c0,1.68.22,2.06,1.62,2.09h1.9c1.4,0,1.72-.19,2.26-.84a11.05,11.05,0,0,0,1.42-2.35Z"/><path d="M37.35,22.05c3.21,0,5.44.66,7,2.1a6.93,6.93,0,0,1,2.13,5.25,7.75,7.75,0,0,1-3,6.4,11.27,11.27,0,0,1-7,2H30.16V37c1.92-.16,2.1-.36,2.1-2.36V25.24c0-2-.28-2.21-2.1-2.37v-.82ZM35.18,34.43c0,1.75.56,2.31,2.35,2.31,3.65,0,5.66-2.53,5.66-7,0-2.42-.73-4.44-2.12-5.52a5.76,5.76,0,0,0-4-1.22,2.6,2.6,0,0,0-1.61.34c-.22.19-.29.55-.29,1.34Z"/><path d="M65.3,22.87c-1.55.12-2,.56-2.09,1.52-.05.66-.1,1.56-.1,3.44v3c0,2.21-.32,4.25-1.71,5.71a6.19,6.19,0,0,1-4.52,1.63,6.83,6.83,0,0,1-4.21-1.21c-1.42-1.09-2.11-2.63-2.11-5.39V25.41c0-2.21-.21-2.37-2.09-2.54v-.82h7.1v.82c-1.86.15-2.07.33-2.07,2.54v6.31c0,3,1.45,4.84,4.16,4.84,3.07,0,4.27-2.13,4.27-5.9V27.83c0-1.87-.07-2.76-.12-3.46-.09-1.11-.72-1.41-2.45-1.5v-.82H65.3Z"/><path d="M78.59,22.05a7.53,7.53,0,0,1,4.27,1,4,4,0,0,1,1.79,3.56c0,3.52-3,5-5.49,5a4.49,4.49,0,0,1-.7-.05L77,31.18v3.47c0,2,.17,2.11,2.32,2.32v.82H71.93V37c1.91-.22,2.1-.31,2.1-2.34V25.25c0-2.08-.25-2.24-2.1-2.38v-.82ZM77,30.22a3.48,3.48,0,0,0,1.45.27c1.3,0,3.18-.71,3.18-3.86C81.59,23.94,80,23,78.28,23a1.67,1.67,0,0,0-1.08.26c-.18.15-.24.41-.24.88Z"/><path d="M105.69,37.79V37c1.89-.19,2.1-.31,2.1-2.36V25.25c0-2.05-.23-2.21-2.1-2.38v-.82h7.13v.82c-1.88.18-2.11.33-2.11,2.38v9.36c0,2,.21,2.16,2.11,2.36v.82Z"/><path d="M130,38a7.79,7.79,0,0,1-.79,0c-2.62-.14-3.53-.72-4.38-1.91s-1.7-2.79-2.51-4.17c-.4-.7-.73-.84-1.67-.84L120,31v3.63c0,2,.25,2.15,2.11,2.36v.82H115V37c1.91-.2,2.11-.36,2.11-2.36V25.2c0-2-.25-2.16-2.11-2.33v-.82h6.73a7.24,7.24,0,0,1,4.21.88,3.67,3.67,0,0,1,1.63,3.22c0,2.13-1.39,3.32-3.06,4,.39.74,1.37,2.33,2.09,3.44a21.91,21.91,0,0,0,1.87,2.51,3.2,3.2,0,0,0,1.61,1.08Zm-9.13-7.9a3.63,3.63,0,0,0,2.47-.66,3.38,3.38,0,0,0,1.21-2.88c0-2.58-1.56-3.51-3.1-3.51-.67,0-1,.1-1.17.25s-.24.42-.24,1v5.84Z"/><path d="M130.93,37.79V37c1.9-.19,2.11-.31,2.11-2.36V25.25c0-2.05-.23-2.21-2.11-2.38v-.82h7.14v.82c-1.88.18-2.11.33-2.11,2.38v9.36c0,2,.21,2.16,2.11,2.36v.82Z"/><path d="M153.31,33.77c-.13.64-.8,3.33-1,4H140V37c2.22-.2,2.38-.36,2.38-2.38V25.25c0-2.09-.29-2.23-2-2.38v-.82h7.71c2.45,0,3.33,0,3.65-.05,0,.49.14,2.42.24,3.84l-.87.13a6.39,6.39,0,0,0-.93-2.11c-.42-.6-.82-.75-2.13-.75h-1.83c-.86,0-.94.06-.94.84v5.16h2.48c1.52,0,1.72-.36,2.06-2.06h.87v5.26h-.87c-.37-1.77-.56-2.05-2.08-2.05h-2.46v4.4c0,1.68.21,2.06,1.62,2.08h1.9c1.4,0,1.72-.18,2.25-.83a10.29,10.29,0,0,0,1.42-2.35Z"/><path d="M169.76,38a7.89,7.89,0,0,1-.79,0c-2.61-.14-3.53-.72-4.37-1.91s-1.71-2.79-2.52-4.17c-.4-.7-.73-.84-1.67-.84l-.61,0v3.63c0,2,.25,2.15,2.11,2.36v.82h-7.08V37c1.9-.2,2.1-.36,2.1-2.36V25.2c0-2-.25-2.16-2.1-2.33v-.82h6.73c2,0,3.24.23,4.2.88a3.68,3.68,0,0,1,1.64,3.22c0,2.13-1.4,3.32-3.07,4,.39.74,1.37,2.33,2.1,3.44a21,21,0,0,0,1.86,2.51,3.2,3.2,0,0,0,1.61,1.08Zm-9.13-7.9a3.67,3.67,0,0,0,2.48-.66,3.4,3.4,0,0,0,1.2-2.88c0-2.58-1.56-3.51-3.09-3.51a1.81,1.81,0,0,0-1.18.25c-.18.15-.24.42-.24,1v5.84Z"/><path d="M66.53,60.66a1.69,1.69,0,0,0-.12-.27c-.07-.12-.12-.15-.33-.15h-.39c-.11,0-.12,0-.12.12v.84H66c.26,0,.28,0,.33-.3h.11v.77h-.11c0-.26-.07-.32-.33-.32h-.46V62c0,.32,0,.33.37.36v.1h-1v-.1c.3,0,.33,0,.33-.36V60.56c0-.32,0-.34-.33-.37v-.1H66.6c0,.14,0,.39,0,.57Z"/><path d="M68.85,61.89c0,.1-.12.47-.15.58H66.91v-.1c.35,0,.37-.06.37-.36V60.56c0-.32,0-.34-.31-.37v-.1h1.65c0,.1,0,.37,0,.57h-.11a1,1,0,0,0-.11-.27c-.06-.13-.14-.15-.36-.15h-.35c-.11,0-.12,0-.12.12v.81H68c.27,0,.29-.06.33-.31h.12v.76h-.12c0-.27-.07-.3-.34-.3h-.4V62c0,.26.08.28.26.29h.34c.23,0,.26,0,.35-.13a1.58,1.58,0,0,0,.19-.34Z"/><path d="M71,61.89c0,.1-.12.47-.15.58H69.07v-.1c.35,0,.37-.06.37-.36V60.56c0-.32,0-.34-.31-.37v-.1h1.65c0,.1,0,.37,0,.57H70.7a1,1,0,0,0-.11-.27c-.06-.13-.14-.15-.36-.15h-.35c-.11,0-.12,0-.12.12v.81h.41c.27,0,.29-.06.33-.31h.12v.76H70.5c0-.27-.07-.3-.34-.3h-.4V62c0,.26.08.28.26.29h.34c.23,0,.26,0,.34-.13a1.6,1.6,0,0,0,.2-.34Z"/><path d="M73.11,61.87c0,.11-.13.49-.17.6h-1.7v-.1c.33,0,.36,0,.36-.36V60.55c0-.31,0-.33-.33-.36v-.1h1v.1c-.29,0-.33.05-.33.36V62c0,.23,0,.28.24.28h.29a.34.34,0,0,0,.32-.12,1.37,1.37,0,0,0,.23-.37Z"/><path d="M76.74,60.19c-.24,0-.31.07-.32.24s0,.27,0,.61v1.47h-.14L74.7,60.59v.92c0,.33,0,.49,0,.6s.1.24.36.26v.1h-.89v-.1c.23,0,.31-.07.33-.25s0-.28,0-.62v-.93a.31.31,0,0,0-.08-.24c-.07-.1-.14-.12-.32-.14v-.1h.55l1.55,1.84V61c0-.34,0-.5,0-.61s-.09-.22-.39-.24v-.1h.91Z"/><path d="M78.29,62.47v-.1c.23,0,.26-.07.21-.2s-.12-.33-.19-.56h-.8c-.06.16-.11.31-.16.46s0,.26.27.3v.1h-.85v-.1c.23,0,.29,0,.42-.38L78,60.06l.12,0,.71,2c.12.32.15.35.41.38v.1Zm-.37-1.95-.35.94h.68Z"/><path d="M81,60.67a1.37,1.37,0,0,0-.11-.31c-.06-.1-.1-.12-.3-.12h-.37V62c0,.29,0,.33.38.35v.1H79.5v-.1c.35,0,.37-.06.37-.35V60.24h-.33c-.2,0-.26,0-.32.13a1.31,1.31,0,0,0-.12.3H79c0-.23,0-.46.05-.66h.09c.05.09.09.08.19.08h1.46c.1,0,.13,0,.18-.08h.09c0,.17,0,.43,0,.65Z"/><path d="M83.9,60.19c-.23,0-.31.08-.32.25s0,.23,0,.57v.4a1.15,1.15,0,0,1-.26.88.89.89,0,0,1-.67.23,1,1,0,0,1-.6-.16,1,1,0,0,1-.33-.85v-.94c0-.33,0-.35-.32-.38v-.1h1v.1c-.29,0-.32.05-.32.38v.92c0,.53.25.83.69.83s.69-.33.69-.93V61a5.31,5.31,0,0,0,0-.57c0-.17-.1-.23-.37-.25v-.1h.88Z"/><path d="M86.28,62.5h-.13a.67.67,0,0,1-.58-.32c-.13-.19-.26-.42-.38-.6s-.12-.14-.31-.14h-.13V62c0,.31,0,.33.34.36v.1h-1v-.1c.3,0,.33,0,.33-.36V60.55c0-.31,0-.32-.33-.36v-.1H85a1,1,0,0,1,.59.13.54.54,0,0,1,.25.48.68.68,0,0,1-.47.63c.06.11.22.36.33.52a3.85,3.85,0,0,0,.29.38.48.48,0,0,0,.27.17Zm-1.35-1.19a.62.62,0,0,0,.4-.1.52.52,0,0,0,.2-.46.49.49,0,0,0-.54-.53c-.1,0-.17,0-.19,0s0,.06,0,.15v.9Z"/><path d="M88.33,61.89c0,.1-.12.47-.16.58H86.39v-.1c.34,0,.37-.06.37-.36V60.56c0-.32,0-.34-.32-.37v-.1h1.65c0,.1,0,.37,0,.57H88a1.48,1.48,0,0,0-.11-.27c-.06-.13-.15-.15-.37-.15H87.2c-.12,0-.13,0-.13.12v.81h.41c.28,0,.29-.06.34-.31h.11v.76h-.11c0-.27-.08-.3-.34-.3h-.41V62c0,.26.09.28.27.29h.34c.22,0,.26,0,.34-.13a1.6,1.6,0,0,0,.2-.34Z"/><path d="M90.3,61.76h-.85l0-.23h.84Z"/><path d="M93.12,60.66a1.09,1.09,0,0,0-.11-.27c-.07-.12-.12-.15-.33-.15h-.39c-.11,0-.12,0-.12.12v.84h.46c.26,0,.28,0,.33-.3h.11v.77H93c0-.26-.07-.32-.33-.32h-.46V62c0,.32,0,.33.37.36v.1h-1v-.1c.3,0,.33,0,.33-.36V60.56c0-.32,0-.34-.33-.37v-.1H93.2c0,.14,0,.39,0,.57Z"/><path d="M95.45,61.89c0,.1-.12.47-.16.58H93.51v-.1c.34,0,.37-.06.37-.36V60.56c0-.32,0-.34-.32-.37v-.1h1.66c0,.1,0,.37,0,.57h-.11a1,1,0,0,0-.11-.27c-.06-.13-.14-.15-.36-.15h-.35c-.11,0-.12,0-.12.12v.81h.41c.27,0,.29-.06.33-.31h.12v.76h-.12c0-.27-.07-.3-.34-.3h-.4V62c0,.26.08.28.26.29h.34c.23,0,.26,0,.34-.13a1.6,1.6,0,0,0,.2-.34Z"/><path d="M97.61,61.89c0,.1-.12.47-.16.58H95.67v-.1c.34,0,.37-.06.37-.36V60.56c0-.32,0-.34-.32-.37v-.1h1.66c0,.1,0,.37,0,.57H97.3a1,1,0,0,0-.11-.27c-.06-.13-.14-.15-.36-.15h-.35c-.11,0-.12,0-.12.12v.81h.4c.28,0,.3-.06.34-.31h.12v.76H97.1c0-.27-.08-.3-.34-.3h-.4V62c0,.26.08.28.26.29H97c.23,0,.26,0,.34-.13a1.6,1.6,0,0,0,.2-.34Z"/><path d="M99.71,61.87c0,.11-.13.49-.17.6h-1.7v-.1c.33,0,.36,0,.36-.36V60.55c0-.31,0-.33-.33-.36v-.1h1v.1c-.29,0-.33.05-.33.36V62c0,.23,0,.28.24.28H99c.19,0,.25,0,.33-.12a1.14,1.14,0,0,0,.22-.37Z"/><path d="M103.36,60.19c-.31,0-.34.05-.34.36V62c0,.31,0,.32.34.35v.1h-1v-.1c.31,0,.34,0,.34-.35v-.73h-1.26V62c0,.3,0,.31.33.35v.1h-1v-.1c.29,0,.32,0,.32-.35V60.55c0-.31,0-.33-.32-.36v-.1h1v.1c-.29,0-.33.06-.33.36v.58h1.26v-.58c0-.3,0-.33-.34-.36v-.1h1Z"/><path d="M104.94,60a1.18,1.18,0,0,1,1.19,1.21,1.21,1.21,0,1,1-2.42,0A1.22,1.22,0,0,1,104.94,60Zm-.07.14c-.41,0-.78.34-.78,1s.37,1.18.89,1.18.78-.33.78-1S105.35,60.18,104.87,60.18Z"/><path d="M108.52,62.47v-.1c.31,0,.32,0,.31-.44v-1.5c-.3.67-.79,1.72-.92,2h-.09c-.13-.33-.54-1.34-.82-2C107,61.75,107,62,107,62.11s.09.24.34.26v.1h-.87v-.1c.21,0,.3-.07.33-.26s0-.3.12-1.63c0-.19,0-.26-.34-.29v-.1h.64L108,62l.86-1.86h.64v.1c-.31,0-.35.07-.34.33v1.41c0,.39,0,.41.35.44v.1Z"/><path d="M111.73,61.89c0,.1-.12.47-.15.58h-1.79v-.1c.35,0,.37-.06.37-.36V60.56c0-.32,0-.34-.31-.37v-.1h1.65c0,.1,0,.37,0,.57h-.11a1,1,0,0,0-.11-.27c-.06-.13-.14-.15-.36-.15h-.35c-.11,0-.12,0-.12.12v.81h.41c.27,0,.29-.06.33-.31h.12v.76h-.12c0-.27-.07-.3-.34-.3h-.4V62c0,.26.08.28.26.29h.34c.23,0,.26,0,.35-.13a2.17,2.17,0,0,0,.19-.34Z"/><path d="M113.7,61.76h-.84l0-.23h.84Z"/><path d="M116.53,60.66a.83.83,0,0,0-.12-.27c-.06-.12-.12-.15-.32-.15h-.4c-.1,0-.11,0-.11.12v.84H116c.26,0,.28,0,.34-.3h.11v.77h-.12c0-.26-.07-.32-.33-.32h-.45V62c0,.32,0,.33.37.36v.1h-1v-.1c.29,0,.33,0,.33-.36V60.56c0-.32,0-.34-.33-.37v-.1h1.68c0,.14,0,.39,0,.57Z"/><path d="M118.86,61.89c0,.1-.12.47-.16.58h-1.78v-.1c.34,0,.36-.06.36-.36V60.56c0-.32,0-.34-.31-.37v-.1h1.65c0,.1,0,.37,0,.57h-.11a.76.76,0,0,0-.11-.27c-.05-.13-.14-.15-.36-.15h-.35c-.11,0-.12,0-.12.12v.81H118c.27,0,.29-.06.34-.31h.11v.76h-.11c0-.27-.08-.3-.34-.3h-.41V62c0,.26.08.28.27.29h.34c.22,0,.26,0,.34-.13a1.6,1.6,0,0,0,.2-.34Z"/><path d="M121,61.89l-.16.58h-1.78v-.1c.34,0,.36-.06.36-.36V60.56c0-.32,0-.34-.31-.37v-.1h1.65c0,.1,0,.37,0,.57h-.11a1,1,0,0,0-.11-.27c0-.13-.14-.15-.36-.15h-.35c-.11,0-.12,0-.12.12v.81h.41c.27,0,.29-.06.34-.31h.11v.76h-.11c-.05-.27-.08-.3-.34-.3h-.41V62c0,.26.08.28.27.29h.34c.22,0,.26,0,.34-.13a2.18,2.18,0,0,0,.2-.34Z"/><path d="M123.11,61.87c0,.11-.13.49-.17.6h-1.7v-.1c.33,0,.36,0,.36-.36V60.55c0-.31,0-.33-.33-.36v-.1h1v.1c-.3,0-.34.05-.34.36V62c0,.23,0,.28.24.28h.29a.36.36,0,0,0,.33-.12,1.34,1.34,0,0,0,.22-.37Z"/><path d="M126.6,61.47c-.22,0-.24.05-.24.27v.31a1.89,1.89,0,0,0,0,.35,3.71,3.71,0,0,1-.83.13,1.22,1.22,0,0,1-1.34-1.25A1.26,1.26,0,0,1,125.58,60a3.64,3.64,0,0,1,.76.09c0,.14,0,.36,0,.59l-.11,0a.61.61,0,0,0-.42-.52,1.27,1.27,0,0,0-.34,0c-.56,0-.93.38-.93,1a1,1,0,0,0,1,1.16.71.71,0,0,0,.31-.06c.07,0,.12-.08.12-.23v-.3c0-.27,0-.3-.38-.33v-.1h.94Z"/><path d="M128.23,60a1.18,1.18,0,0,1,1.18,1.21,1.21,1.21,0,1,1-2.42,0A1.22,1.22,0,0,1,128.23,60Zm-.08.14c-.41,0-.78.34-.78,1s.37,1.18.89,1.18.78-.33.78-1S128.63,60.18,128.15,60.18Z"/><path d="M131.06,60a1.18,1.18,0,0,1,1.19,1.21,1.22,1.22,0,1,1-2.43,0A1.22,1.22,0,0,1,131.06,60Zm-.07.14c-.41,0-.79.34-.79,1s.38,1.18.9,1.18.77-.33.77-1S131.47,60.18,131,60.18Z"/><path d="M133.62,60.09a1.43,1.43,0,0,1,1.07.32,1.06,1.06,0,0,1,.32.78,1.21,1.21,0,0,1-.46,1,1.76,1.76,0,0,1-1.09.29h-.85v-.1c.31,0,.33,0,.33-.35V60.55c0-.31-.05-.33-.33-.36v-.1Zm-.37,1.9c0,.27.12.35.4.35a1,1,0,0,0,1-1.09.94.94,0,0,0-.42-.88,1.13,1.13,0,0,0-.63-.15.54.54,0,0,0-.29.05s-.05.06-.05.21Z"/></g></g></svg>