<svg xmlns="http://www.w3.org/2000/svg" viewBox="0 0 200.06 127.42"><defs><style>.cls-1{fill:#282827;}</style></defs><g id="Calque_2" data-name="Calque 2"><g id="Calque_1-2" data-name="Calque 1"><path class="cls-1" d="M0,110.65c5.84-.2,11.68-.3,17.53-.38s11.68-.07,17.52-.12,11.69,0,17.53.12l8.76.14c2.92.08,5.84.13,8.76.24-2.92.12-5.84.17-8.76.25l-8.76.14c-5.84.08-11.69.07-17.53.11s-11.68,0-17.52-.11S5.84,110.86,0,110.65Z"/><path class="cls-1" d="M.08,121.36c5.84-.21,11.67-.31,17.51-.39s11.67-.07,17.5-.11,11.67,0,17.51.11l8.75.14c2.92.08,5.84.13,8.75.25-2.91.11-5.83.16-8.75.24l-8.75.14c-5.84.08-11.67.08-17.51.12s-11.67,0-17.5-.12S5.92,121.56.08,121.36Z"/><path class="cls-1" d="M130,110.65c5.83-.2,11.67-.3,17.5-.38s11.67-.07,17.51-.12,11.67,0,17.5.12l8.76.14c2.92.08,5.83.13,8.75.24-2.92.12-5.83.17-8.75.25l-8.76.14c-5.83.08-11.67.07-17.5.11s-11.67,0-17.51-.11S135.87,110.86,130,110.65Z"/><path class="cls-1" d="M130,121.36c5.83-.21,11.67-.31,17.5-.39s11.67-.07,17.51-.11,11.67,0,17.5.11l8.76.14c2.92.08,5.83.13,8.75.25-2.92.11-5.83.16-8.75.24l-8.76.14c-5.83.08-11.67.08-17.5.12s-11.67,0-17.51-.12S135.87,121.56,130,121.36Z"/><path class="cls-1" d="M55.85,104.49c.21,1,.36,1.91.51,2.87v17.2c-.17,1-.29,1.91-.5,2.86-.2-1-.33-1.91-.5-2.86v-17.2C55.5,106.4,55.65,105.45,55.85,104.49Z"/><path class="cls-1" d="M15.12,104.49c.21,1,.36,1.91.51,2.87v17.2c-.16,1-.29,1.91-.5,2.86-.2-1-.33-1.91-.5-2.86v-17.2C14.77,106.4,14.92,105.45,15.12,104.49Z"/><path class="cls-1" d="M145.36,104.49c.21,1,.36,1.91.51,2.87v17.2c-.16,1-.29,1.91-.5,2.86-.2-1-.33-1.91-.5-2.86v-17.2C145,106.4,145.16,105.45,145.36,104.49Z"/><path class="cls-1" d="M185.68,104.49c.21,1,.36,1.91.5,2.87v17.2c-.17,1-.3,1.91-.5,2.86-.2-1-.33-1.91-.5-2.86v-17.2C185.32,106.4,185.47,105.45,185.68,104.49Z"/><path class="cls-1" d="M37.59,65.85c-1.22,3-9.35,9.94-13.25,10.79l.11,32H21.1c0-.22,1.29-31.94,1.29-31.94S8.2,67.61,8.41,63.31C8.66,58.33,25.68,0,25.68,0S39.43,61.3,37.59,65.85Z"/><path class="cls-1" d="M184.59,81.36c-.92,3.15-14.69,4.25-14.69,4.25l.4,23.07h-2.54l.49-23s-15.18-1.29-15-5.59c.25-5,15.56-37.87,15.56-37.87S186.11,76.2,184.59,81.36Z"/><g id="QRIcRM.tif"><path class="cls-1" d="M180.83,83.6c-.06,0,0,.07,0,.1a5.89,5.89,0,0,0,.09,1,.09.09,0,0,0,.05.08,1,1,0,0,1,.46.55l.16.43a1.13,1.13,0,0,0,.11.22,3.66,3.66,0,0,1,.42.68,1.43,1.43,0,0,1,.11.91,1.31,1.31,0,0,1-1.18,1,2.48,2.48,0,0,1-.72,0,.68.68,0,0,1-.39-.13,2.33,2.33,0,0,1-.52-.52,1.21,1.21,0,0,1-.22-.76,1.26,1.26,0,0,1,.26-.71,3.25,3.25,0,0,1,.23-.29,1.68,1.68,0,0,0,.31-.61,1.93,1.93,0,0,1,.15-.4.86.86,0,0,1,.43-.41c.14-.06.16-.07.14-.22a8.48,8.48,0,0,1-.06-.87,1.2,1.2,0,0,1,.05-.38s0-.08.06-.07.08,0,.08.08v.09C180.8,83.47,180.87,83.58,180.83,83.6Z"/></g><g id="QRIcRM.tif-2" data-name="QRIcRM.tif"><path class="cls-1" d="M97.12,82.79a17.66,17.66,0,0,0,.26,2.9.24.24,0,0,0,.16.21,2.72,2.72,0,0,1,1.32,1.55c.16.41.31.82.47,1.22a2.61,2.61,0,0,0,.32.62,10.1,10.1,0,0,1,1.21,1.93,3.92,3.92,0,0,1,.32,2.56,3.76,3.76,0,0,1-3.4,2.9,7.46,7.46,0,0,1-2.11,0,2.44,2.44,0,0,1-1.12-.37,7.36,7.36,0,0,1-1.49-1.46,3.47,3.47,0,0,1-.64-2.15,3.54,3.54,0,0,1,.74-2c.22-.28.43-.55.67-.82a4.69,4.69,0,0,0,.9-1.71A5.84,5.84,0,0,1,95.17,87a2.42,2.42,0,0,1,1.25-1.15c.4-.17.44-.19.39-.61-.09-.83-.16-1.65-.17-2.47C96.63,82.38,97.12,82.69,97.12,82.79Z"/></g><path class="cls-1" d="M81,73.94a4.43,4.43,0,0,0-.62-1.38c-.32-.42-.54-.5-1.35-.5H77.63c-.51,0-.57,0-.57.55v3.54h1.8c1,0,1.12-.23,1.35-1.34h.55v3.46H80.2c-.19-1.09-.38-1.36-1.34-1.36h-1.8v2.61c0,1.43.12,1.53,1.55,1.63v.54H73.76v-.54c1.24-.1,1.38-.2,1.38-1.63v-6c0-1.4-.15-1.5-1.38-1.61v-.54H79c1.39,0,2.09,0,2.35,0,0,.38.09,1.65.17,2.53Z"/><path class="cls-1" d="M91.33,79.05c-.08.42-.52,2.18-.67,2.64H82.6v-.53c1.45-.13,1.55-.23,1.55-1.55V73.46c0-1.37-.18-1.46-1.3-1.56v-.54h5.06c1.61,0,2.18,0,2.39,0,0,.32.09,1.59.16,2.52l-.57.08a4.23,4.23,0,0,0-.61-1.38c-.28-.39-.54-.49-1.4-.49h-1.2c-.56,0-.62,0-.62.55V76h1.63c1,0,1.13-.24,1.35-1.35h.58V78.1H89c-.24-1.17-.36-1.35-1.36-1.35H86.06v2.89c0,1.1.15,1.35,1.06,1.36h1.25c.92,0,1.13-.12,1.48-.54a6.72,6.72,0,0,0,.93-1.55Z"/><path class="cls-1" d="M102.12,81.8l-.51,0c-1.72-.09-2.32-.48-2.87-1.26s-1.12-1.83-1.65-2.73c-.27-.46-.48-.56-1.1-.56h-.4v2.39c0,1.3.17,1.41,1.38,1.54v.54H92.33v-.54c1.25-.13,1.38-.24,1.38-1.54V73.43c0-1.29-.17-1.42-1.38-1.53v-.54h4.41a4.69,4.69,0,0,1,2.76.58,2.42,2.42,0,0,1,1.07,2.11,2.79,2.79,0,0,1-2,2.63c.26.48.9,1.53,1.38,2.25a13,13,0,0,0,1.22,1.65,2.1,2.1,0,0,0,1.06.71Zm-6-5.19a2.43,2.43,0,0,0,1.62-.43,2.23,2.23,0,0,0,.79-1.89c0-1.69-1-2.3-2-2.3-.44,0-.67.06-.77.16s-.16.28-.16.63v3.83Z"/><path class="cls-1" d="M111.52,81.69v-.54c1.24-.12,1.31-.23,1.3-1.75V73.1c-1.2,2.79-2.75,6.35-3.69,8.59h-.48c-.86-2.19-2.23-5.64-3.39-8.45C105,78.43,105,79.51,105,80c0,.87.36,1.06,1.52,1.17v.54h-3.88v-.54c.91-.08,1.31-.26,1.44-1.18.07-.56.12-1.35.5-6.79.05-.78-.07-1.15-1.45-1.28v-.54h3.2l3.22,7.38,3.32-7.38h3.16v.54c-1.31.14-1.46.27-1.43,1.49l.1,6c0,1.52.09,1.59,1.42,1.75v.54Z"/><path class="cls-1" d="M126,79.05c-.09.42-.53,2.18-.67,2.64h-8.07v-.53c1.46-.13,1.56-.23,1.56-1.55V73.46c0-1.37-.18-1.46-1.3-1.56v-.54h5.05c1.61,0,2.19,0,2.4,0,0,.32.09,1.59.16,2.52l-.57.08a4.23,4.23,0,0,0-.62-1.38c-.27-.39-.53-.49-1.39-.49h-1.2c-.57,0-.62,0-.62.55V76h1.63c1,0,1.13-.24,1.35-1.35h.57V78.1h-.57c-.24-1.17-.37-1.35-1.37-1.35H120.7v2.89c0,1.1.14,1.35,1.06,1.36H123c.92,0,1.13-.12,1.48-.54a7.08,7.08,0,0,0,.93-1.55Z"/><path class="cls-1" d="M58.91,85.79a6.41,6.41,0,0,1,4.58,1.38,4.56,4.56,0,0,1,1.4,3.45,5.07,5.07,0,0,1-2,4.19,7.35,7.35,0,0,1-4.57,1.31H54.19v-.54c1.27-.1,1.38-.24,1.38-1.55V87.89c0-1.35-.18-1.45-1.38-1.56v-.54Zm-1.42,8.12c0,1.16.37,1.52,1.54,1.52,2.39,0,3.71-1.66,3.71-4.58a4.45,4.45,0,0,0-1.39-3.62,3.81,3.81,0,0,0-2.61-.8,1.75,1.75,0,0,0-1.06.22c-.14.13-.19.37-.19.88Z"/><path class="cls-1" d="M77.25,86.33c-1,.08-1.32.37-1.37,1,0,.43-.07,1-.07,2.25v2a5.19,5.19,0,0,1-1.12,3.74,4.05,4.05,0,0,1-3,1.07A4.46,4.46,0,0,1,69,95.56c-.93-.71-1.38-1.72-1.38-3.53V88c0-1.45-.14-1.56-1.37-1.67v-.54h4.65v.54c-1.22.1-1.35.22-1.35,1.67v4.14c0,2,.95,3.17,2.72,3.17,2,0,2.81-1.4,2.81-3.87V89.58c0-1.22-.05-1.8-.08-2.26-.06-.73-.48-.93-1.61-1v-.54h3.9Z"/><path class="cls-1" d="M86,85.79a5,5,0,0,1,2.8.66,2.68,2.68,0,0,1,1.17,2.34,3.34,3.34,0,0,1-3.6,3.28,3,3,0,0,1-.46,0l-1-.26v2.28c0,1.33.11,1.38,1.52,1.52v.54H81.6v-.54c1.25-.14,1.38-.2,1.38-1.53V87.89c0-1.36-.17-1.46-1.38-1.56v-.54ZM84.9,91.16a2.4,2.4,0,0,0,.95.17c.85,0,2.08-.47,2.08-2.53,0-1.77-1-2.4-2.16-2.4a1.15,1.15,0,0,0-.72.17c-.12.11-.15.28-.15.58Z"/><path class="cls-1" d="M103.74,96.12v-.54c1.24-.12,1.38-.2,1.38-1.54V87.89c0-1.34-.15-1.45-1.38-1.56v-.54h4.68v.54c-1.23.12-1.38.22-1.38,1.56V94c0,1.33.14,1.41,1.38,1.54v.54Z"/><path class="cls-1" d="M119.66,96.23l-.52,0c-1.72-.09-2.32-.48-2.87-1.26s-1.12-1.83-1.65-2.73c-.27-.46-.48-.55-1.1-.55l-.4,0V94c0,1.31.17,1.41,1.39,1.54v.54h-4.65v-.54c1.25-.13,1.38-.23,1.38-1.54V87.86c0-1.29-.17-1.42-1.38-1.53v-.54h4.41a4.69,4.69,0,0,1,2.76.58,2.42,2.42,0,0,1,1.07,2.11,2.79,2.79,0,0,1-2,2.63c.26.48.9,1.53,1.38,2.25A14,14,0,0,0,118.69,95a2.1,2.1,0,0,0,1.06.71Zm-6-5.19a2.41,2.41,0,0,0,1.62-.43,2.23,2.23,0,0,0,.79-1.89c0-1.69-1-2.3-2-2.3-.44,0-.67.06-.77.16s-.16.28-.16.63V91Z"/><path class="cls-1" d="M120.3,96.12v-.54c1.24-.12,1.38-.2,1.38-1.54V87.89c0-1.34-.15-1.45-1.38-1.56v-.54H125v.54c-1.24.12-1.39.22-1.39,1.56V94c0,1.33.14,1.41,1.39,1.54v.54Z"/><path class="cls-1" d="M135,93.48c-.08.42-.52,2.18-.67,2.64h-8.07v-.53c1.46-.13,1.56-.23,1.56-1.55V87.89c0-1.37-.18-1.46-1.3-1.56v-.54h5.06c1.6,0,2.18,0,2.39,0,0,.32.09,1.59.16,2.52l-.57.08a4.45,4.45,0,0,0-.61-1.38c-.28-.39-.54-.49-1.4-.49h-1.2c-.57,0-.62,0-.62.55v3.39h1.63c1,0,1.13-.24,1.35-1.35h.57v3.45h-.57c-.24-1.17-.37-1.35-1.36-1.35h-1.62v2.89c0,1.1.14,1.35,1.06,1.36H132c.92,0,1.13-.12,1.48-.54a6.72,6.72,0,0,0,.93-1.55Z"/><path class="cls-1" d="M145.77,96.23l-.51,0c-1.72-.09-2.32-.48-2.87-1.26s-1.12-1.83-1.65-2.73c-.27-.46-.49-.55-1.1-.55l-.4,0V94c0,1.31.16,1.41,1.38,1.54v.54H136v-.54c1.24-.13,1.38-.23,1.38-1.54V87.86c0-1.29-.17-1.42-1.38-1.53v-.54h4.41a4.69,4.69,0,0,1,2.76.58,2.42,2.42,0,0,1,1.07,2.11,2.79,2.79,0,0,1-2,2.63c.26.48.9,1.53,1.38,2.25A13,13,0,0,0,144.81,95a2.1,2.1,0,0,0,1.06.71Zm-6-5.19a2.44,2.44,0,0,0,1.63-.43,2.23,2.23,0,0,0,.79-1.89c0-1.69-1-2.3-2-2.3-.44,0-.67.06-.77.16s-.16.28-.16.63V91Z"/><path class="cls-1" d="M44,83.53c0,3-9.67,8.57-9.67,8.57v16.58H31.74c0-.18.61-16.58.61-16.58S22,86.58,22.14,83c.2-4.14,13.32-64.64,13.32-64.64S44,78.76,44,83.53Z"/><path class="cls-1" d="M66.53,115.33a1.69,1.69,0,0,0-.12-.27c-.07-.12-.12-.15-.33-.15h-.39c-.11,0-.12,0-.12.11v.85H66c.26,0,.28,0,.33-.3h.11v.76h-.11c0-.25-.07-.31-.33-.31h-.46v.66c0,.31,0,.33.37.36v.1h-1V117c.3,0,.33-.05.33-.36v-1.46c0-.31,0-.33-.33-.36v-.1H66.6c0,.13,0,.39,0,.57Z"/><path class="cls-1" d="M68.85,116.56c0,.09-.12.47-.15.58H66.91V117c.35,0,.37-.06.37-.36v-1.45c0-.32,0-.34-.31-.37v-.1h1.65c0,.09,0,.37,0,.56l-.11,0a1.26,1.26,0,0,0-.11-.28c-.06-.12-.14-.14-.36-.14h-.35c-.11,0-.12,0-.12.11v.81H68c.27,0,.29,0,.33-.3h.12v.75h-.12c0-.26-.07-.3-.34-.3h-.4v.73c0,.26.08.28.26.28h.34c.23,0,.26,0,.35-.12a1.58,1.58,0,0,0,.19-.34Z"/><path class="cls-1" d="M71,116.56c0,.09-.12.47-.15.58H69.07V117c.35,0,.37-.06.37-.36v-1.45c0-.32,0-.34-.31-.37v-.1h1.65c0,.09,0,.37,0,.56l-.11,0a1.26,1.26,0,0,0-.11-.28c-.06-.12-.14-.14-.36-.14h-.35c-.11,0-.12,0-.12.11v.81h.41c.27,0,.29,0,.33-.3h.12v.75H70.5c0-.26-.07-.3-.34-.3h-.4v.73c0,.26.08.28.26.28h.34c.23,0,.26,0,.34-.12a1.6,1.6,0,0,0,.2-.34Z"/><path class="cls-1" d="M73.11,116.53a6.09,6.09,0,0,1-.17.61h-1.7V117c.33,0,.36-.05.36-.36v-1.46c0-.31,0-.33-.33-.36v-.1h1v.1c-.29,0-.33,0-.33.36v1.49c0,.23,0,.28.24.28h.29c.18,0,.24,0,.32-.11a1.28,1.28,0,0,0,.23-.38Z"/><path class="cls-1" d="M76.74,114.86c-.24,0-.31.06-.32.23s0,.27,0,.61v1.47h-.14l-1.57-1.91v.91c0,.33,0,.5,0,.6s.1.25.36.27v.1h-.89V117c.23,0,.31-.07.33-.25s0-.29,0-.62v-.93a.32.32,0,0,0-.08-.25c-.07-.09-.14-.11-.32-.13v-.1h.55l1.55,1.84v-.9c0-.34,0-.49,0-.6s-.09-.22-.39-.24v-.1h.91Z"/><path class="cls-1" d="M78.29,117.14V117c.23,0,.26-.07.21-.21s-.12-.32-.19-.55h-.8l-.16.45c-.08.24,0,.27.27.31v.1h-.85V117c.23,0,.29-.06.42-.39l.76-1.92.12,0c.23.62.48,1.32.71,2,.12.32.15.35.41.38v.1Zm-.37-2c-.12.31-.24.65-.35.94h.68Z"/><path class="cls-1" d="M81,115.33a1.46,1.46,0,0,0-.11-.3c-.06-.1-.1-.12-.3-.12h-.37v1.78c0,.29,0,.33.38.35v.1H79.5V117c.35,0,.37-.06.37-.35v-1.78h-.33c-.2,0-.26,0-.32.13a1.41,1.41,0,0,0-.12.29H79c0-.22,0-.45.05-.65h.09c.05.08.09.08.19.08h1.46a.19.19,0,0,0,.18-.08h.09c0,.17,0,.43,0,.64Z"/><path class="cls-1" d="M83.9,114.86c-.23,0-.31.08-.32.24s0,.24,0,.58v.39a1.17,1.17,0,0,1-.26.89.89.89,0,0,1-.67.23.86.86,0,0,1-.93-1v-.93c0-.33,0-.35-.32-.38v-.1h1v.1c-.29,0-.32,0-.32.38v.92c0,.53.25.82.69.82s.69-.32.69-.93v-.37a5.56,5.56,0,0,0,0-.58c0-.16-.1-.22-.37-.24v-.1h.88Z"/><path class="cls-1" d="M86.28,117.17h-.13a.64.64,0,0,1-.57-.31c-.14-.19-.27-.42-.39-.61s-.12-.14-.31-.14h-.13v.58c0,.31,0,.33.34.36v.1h-1V117c.3,0,.33-.05.33-.36v-1.46c0-.31,0-.32-.33-.36v-.1H85a1.06,1.06,0,0,1,.59.12.56.56,0,0,1,.25.49.69.69,0,0,1-.47.63c.06.11.22.36.33.52a3.85,3.85,0,0,0,.29.38.48.48,0,0,0,.27.17ZM84.93,116a.56.56,0,0,0,.4-.11.55.55,0,0,0-.34-1,.36.36,0,0,0-.19,0,.2.2,0,0,0,0,.16v.9Z"/><path class="cls-1" d="M88.33,116.56c0,.09-.12.47-.16.58H86.39V117c.34,0,.37-.06.37-.36v-1.45c0-.32,0-.34-.32-.37v-.1h1.65c0,.09,0,.37,0,.56l-.11,0a2,2,0,0,0-.11-.28c-.06-.12-.15-.14-.37-.14H87.2c-.12,0-.13,0-.13.11v.81h.41c.28,0,.29,0,.34-.3h.11v.75h-.11c0-.26-.08-.3-.34-.3h-.41v.73c0,.26.09.28.27.28h.34c.22,0,.26,0,.34-.12a1.6,1.6,0,0,0,.2-.34Z"/><path class="cls-1" d="M90.3,116.42h-.85l0-.22h.84Z"/><path class="cls-1" d="M93.12,115.33a1.09,1.09,0,0,0-.11-.27c-.07-.12-.12-.15-.33-.15h-.39c-.11,0-.12,0-.12.11v.85h.46c.26,0,.28,0,.33-.3h.11v.76H93c0-.25-.07-.31-.33-.31h-.46v.66c0,.31,0,.33.37.36v.1h-1V117c.3,0,.33-.05.33-.36v-1.46c0-.31,0-.33-.33-.36v-.1H93.2c0,.13,0,.39,0,.57Z"/><path class="cls-1" d="M95.45,116.56c0,.09-.12.47-.16.58H93.51V117c.34,0,.37-.06.37-.36v-1.45c0-.32,0-.34-.32-.37v-.1h1.66c0,.09,0,.37,0,.56l-.11,0a1.26,1.26,0,0,0-.11-.28c-.06-.12-.14-.14-.36-.14h-.35c-.11,0-.12,0-.12.11v.81h.41c.27,0,.29,0,.33-.3h.12v.75h-.12c0-.26-.07-.3-.34-.3h-.4v.73c0,.26.08.28.26.28h.34c.23,0,.26,0,.34-.12a1.6,1.6,0,0,0,.2-.34Z"/><path class="cls-1" d="M97.61,116.56c0,.09-.12.47-.16.58H95.67V117c.34,0,.37-.06.37-.36v-1.45c0-.32,0-.34-.32-.37v-.1h1.66c0,.09,0,.37,0,.56l-.11,0a1.26,1.26,0,0,0-.11-.28c-.06-.12-.14-.14-.36-.14h-.35c-.11,0-.12,0-.12.11v.81h.4c.28,0,.3,0,.34-.3h.12v.75H97.1c0-.26-.08-.3-.34-.3h-.4v.73c0,.26.08.28.26.28H97c.23,0,.26,0,.34-.12a1.6,1.6,0,0,0,.2-.34Z"/><path class="cls-1" d="M99.71,116.53a6.09,6.09,0,0,1-.17.61h-1.7V117c.33,0,.36-.05.36-.36v-1.46c0-.31,0-.33-.33-.36v-.1h1v.1c-.29,0-.33,0-.33.36v1.49c0,.23,0,.28.24.28H99c.19,0,.25,0,.33-.11a1.09,1.09,0,0,0,.22-.38Z"/><path class="cls-1" d="M103.36,114.86c-.31,0-.34,0-.34.36v1.47c0,.3,0,.32.34.35v.1h-1V117c.31,0,.34-.05.34-.35V116h-1.26v.74c0,.3,0,.31.33.35v.1h-1V117c.29,0,.32-.05.32-.35v-1.47c0-.31,0-.33-.32-.36v-.1h1v.1c-.29,0-.33,0-.33.36v.58h1.26v-.58c0-.31,0-.33-.34-.36v-.1h1Z"/><path class="cls-1" d="M104.94,114.71a1.18,1.18,0,0,1,1.19,1.21,1.21,1.21,0,1,1-2.42,0A1.22,1.22,0,0,1,104.94,114.71Zm-.07.13c-.41,0-.78.35-.78,1s.37,1.19.89,1.19.78-.33.78-1S105.35,114.84,104.87,114.84Z"/><path class="cls-1" d="M108.52,117.14V117c.31,0,.32-.05.31-.44v-1.5c-.3.67-.79,1.72-.92,2h-.09c-.13-.33-.54-1.34-.82-2-.06,1.28-.06,1.57-.06,1.64s.09.23.34.26v.1h-.87V117c.21,0,.3-.07.33-.27s0-.29.12-1.63c0-.19,0-.25-.34-.28v-.1h.64l.81,1.86.86-1.86h.64v.1c-.31,0-.35.07-.34.33v1.41c0,.39,0,.41.35.44v.1Z"/><path class="cls-1" d="M111.73,116.56c0,.09-.12.47-.15.58h-1.79V117c.35,0,.37-.06.37-.36v-1.45c0-.32,0-.34-.31-.37v-.1h1.65c0,.09,0,.37,0,.56l-.11,0a1.26,1.26,0,0,0-.11-.28c-.06-.12-.14-.14-.36-.14h-.35c-.11,0-.12,0-.12.11v.81h.41c.27,0,.29,0,.33-.3h.12v.75h-.12c0-.26-.07-.3-.34-.3h-.4v.73c0,.26.08.28.26.28h.34c.23,0,.26,0,.35-.12a2.17,2.17,0,0,0,.19-.34Z"/><path class="cls-1" d="M113.7,116.42h-.84l0-.22h.84Z"/><path class="cls-1" d="M116.53,115.33a.83.83,0,0,0-.12-.27c-.06-.12-.12-.15-.32-.15h-.4c-.1,0-.11,0-.11.11v.85H116c.26,0,.28,0,.34-.3h.11v.76h-.12c0-.25-.07-.31-.33-.31h-.45v.66c0,.31,0,.33.37.36v.1h-1V117c.29,0,.33-.05.33-.36v-1.46c0-.31,0-.33-.33-.36v-.1h1.68c0,.13,0,.39,0,.57Z"/><path class="cls-1" d="M118.86,116.56c0,.09-.12.47-.16.58h-1.78V117c.34,0,.36-.06.36-.36v-1.45c0-.32,0-.34-.31-.37v-.1h1.65c0,.09,0,.37,0,.56l-.11,0a.91.91,0,0,0-.11-.28c-.05-.12-.14-.14-.36-.14h-.35c-.11,0-.12,0-.12.11v.81H118c.27,0,.29,0,.34-.3h.11v.75h-.11c0-.26-.08-.3-.34-.3h-.41v.73c0,.26.08.28.27.28h.34c.22,0,.26,0,.34-.12a1.6,1.6,0,0,0,.2-.34Z"/><path class="cls-1" d="M121,116.56c0,.09-.13.47-.16.58h-1.78V117c.34,0,.36-.06.36-.36v-1.45c0-.32,0-.34-.31-.37v-.1h1.65c0,.09,0,.37,0,.56l-.11,0a1.26,1.26,0,0,0-.11-.28c0-.12-.14-.14-.36-.14h-.35c-.11,0-.12,0-.12.11v.81h.41c.27,0,.29,0,.34-.3h.11v.75h-.11c-.05-.26-.08-.3-.34-.3h-.41v.73c0,.26.08.28.27.28h.34c.22,0,.26,0,.34-.12a2.18,2.18,0,0,0,.2-.34Z"/><path class="cls-1" d="M123.11,116.53a6.09,6.09,0,0,1-.17.61h-1.7V117c.33,0,.36-.05.36-.36v-1.46c0-.31,0-.33-.33-.36v-.1h1v.1c-.3,0-.34,0-.34.36v1.49c0,.23,0,.28.24.28h.29c.19,0,.24,0,.33-.11a1.27,1.27,0,0,0,.22-.38Z"/><path class="cls-1" d="M126.6,116.14c-.22,0-.24,0-.24.27v.31a1.78,1.78,0,0,0,0,.34,3.18,3.18,0,0,1-.83.14,1.22,1.22,0,0,1-1.34-1.26,1.26,1.26,0,0,1,1.37-1.23,3.64,3.64,0,0,1,.76.09c0,.14,0,.36,0,.59l-.11,0a.61.61,0,0,0-.42-.52,1.27,1.27,0,0,0-.34,0c-.56,0-.93.39-.93,1.06a1,1,0,0,0,1,1.16.9.9,0,0,0,.31-.06.24.24,0,0,0,.12-.24v-.3c0-.26,0-.29-.38-.32V116h.94Z"/><path class="cls-1" d="M128.23,114.71a1.18,1.18,0,0,1,1.18,1.21,1.21,1.21,0,1,1-2.42,0A1.22,1.22,0,0,1,128.23,114.71Zm-.08.13c-.41,0-.78.35-.78,1s.37,1.19.89,1.19.78-.33.78-1S128.63,114.84,128.15,114.84Z"/><path class="cls-1" d="M131.06,114.71a1.18,1.18,0,0,1,1.19,1.21,1.22,1.22,0,1,1-2.43,0A1.22,1.22,0,0,1,131.06,114.71Zm-.07.13c-.41,0-.79.35-.79,1s.38,1.19.9,1.19.77-.33.77-1S131.47,114.84,131,114.84Z"/><path class="cls-1" d="M133.62,114.76a1.43,1.43,0,0,1,1.07.32,1,1,0,0,1,.32.78,1.21,1.21,0,0,1-.46,1,1.76,1.76,0,0,1-1.09.29h-.85V117c.31,0,.33-.06.33-.36v-1.46c0-.31-.05-.33-.33-.36v-.1Zm-.37,1.89c0,.28.12.36.4.36a1,1,0,0,0,1-1.1,1,1,0,0,0-.42-.88,1.22,1.22,0,0,0-.63-.14.54.54,0,0,0-.29,0s-.05.06-.05.2Z"/></g></g></svg>